<?xml version="1.0" standalone="no"?>
<!DOCTYPE svg PUBLIC "-//W3C//DTD SVG 20010904//EN"
 "http://www.w3.org/TR/2001/REC-SVG-20010904/DTD/svg10.dtd">
<svg version="1.0" xmlns="http://www.w3.org/2000/svg"
 width="768.000000pt" height="1024.000000pt" viewBox="0 0 768.000000 1024.000000"
 preserveAspectRatio="xMidYMid meet">

<g transform="translate(0.000000,1024.000000) scale(0.100000,-0.100000)"
fill="#000000" stroke="none">
<path d="M4210 8213 c0 -3 5 -14 11 -25 6 -11 13 -35 16 -52 l5 -31 -28 25
c-16 14 -23 18 -16 9 7 -9 10 -24 6 -33 -3 -9 -1 -16 6 -16 6 0 8 5 4 13 -5 8
-2 8 9 -2 24 -19 21 -24 -13 -19 -16 3 -30 1 -30 -3 0 -4 -9 -6 -19 -4 -14 3
-18 -1 -14 -11 3 -8 9 -14 15 -14 5 0 16 -7 24 -15 9 -8 20 -15 27 -15 6 0 2
7 -9 15 -10 8 -14 15 -7 15 14 0 63 -47 63 -60 0 -6 -4 -10 -10 -10 -5 0 -10
5 -10 11 0 6 -7 8 -16 5 -9 -3 -41 11 -77 34 -51 34 -64 38 -72 26 -9 -12 -24
-9 -95 20 -96 38 -158 57 -144 45 5 -5 18 -11 29 -13 11 -3 -18 -8 -65 -12
-47 -5 -87 -12 -90 -17 -3 -5 -43 -11 -89 -14 -46 -3 -88 -8 -95 -12 -6 -4
-17 -8 -25 -9 -7 -2 -23 -12 -35 -23 -11 -11 -33 -23 -48 -26 -16 -4 -28 -11
-28 -15 0 -5 -28 -22 -62 -39 -33 -17 -57 -31 -52 -31 5 0 -6 -9 -25 -21 -19
-11 -49 -35 -66 -52 -17 -18 -51 -50 -76 -73 -51 -48 -99 -103 -99 -114 0 -5
-18 -28 -41 -52 -70 -73 -117 -142 -161 -237 -23 -50 -46 -91 -51 -91 -12 0
-37 -26 -37 -39 0 -6 -4 -11 -9 -11 -14 0 -5 -128 11 -153 15 -24 17 -64 5
-84 -5 -8 -3 -13 3 -13 7 0 10 -7 7 -15 -4 -8 -2 -17 4 -20 5 -4 7 -16 5 -28
-2 -12 0 -31 4 -42 4 -10 1 -30 -6 -44 -7 -13 -10 -29 -7 -35 6 -10 11 -36 15
-93 1 -13 4 -23 8 -23 3 0 5 -27 5 -61 0 -33 3 -63 8 -66 4 -2 5 -9 1 -14 -3
-5 -2 -15 3 -22 6 -7 11 -41 12 -77 4 -102 16 -160 32 -160 5 0 9 -10 9 -23 0
-12 7 -34 17 -47 9 -14 10 -19 3 -12 -21 18 -30 15 -30 -12 0 -34 10 -56 25
-56 17 0 39 -55 32 -82 -6 -21 -5 -22 7 -5 13 16 14 16 21 -5 6 -23 7 -23 15
4 4 15 13 116 20 225 15 258 34 396 60 438 16 25 22 57 26 127 6 122 13 165
24 148 6 -9 10 -7 15 9 7 25 20 27 29 6 3 -8 12 -15 20 -15 15 0 29 -27 20
-41 -3 -5 5 -9 16 -9 13 0 24 -8 27 -20 3 -11 10 -20 17 -20 6 0 2 -7 -8 -15
-17 -13 -15 -19 5 -17 3 1 6 -12 7 -28 0 -17 3 -34 7 -40 9 -15 25 -12 25 5 0
18 16 20 23 3 4 -9 8 -10 14 -2 4 6 19 7 33 4 l25 -7 -30 -13 c-16 -7 -43 -13
-60 -14 -22 -1 -30 -6 -32 -21 -1 -16 -1 -16 3 -2 6 18 24 24 24 7 0 -5 -15
-19 -33 -31 -18 -12 -48 -42 -67 -67 -19 -25 -41 -51 -48 -58 -16 -17 -54
-105 -47 -112 3 -3 5 -2 5 3 0 4 6 2 14 -5 8 -6 12 -18 9 -26 -6 -16 22 -20
32 -4 3 6 16 10 29 10 13 0 31 9 41 20 24 26 59 25 97 -2 18 -12 47 -22 71
-22 52 -1 59 -21 11 -30 -86 -17 -188 -86 -199 -136 -4 -17 -11 -30 -16 -30
-5 0 -8 -3 -7 -7 0 -5 -2 -15 -5 -23 -3 -8 -7 -23 -9 -33 -2 -10 -7 -19 -13
-19 -15 -2 -45 -44 -45 -62 0 -9 8 -16 20 -16 11 0 21 -4 21 -10 1 -5 2 -15 3
-20 0 -6 8 -15 16 -20 12 -8 11 -10 -7 -10 -13 0 -23 -4 -23 -10 0 -12 16 -13
58 -1 25 8 32 7 32 -5 0 -8 -11 -14 -27 -15 l-28 0 24 -10 c14 -5 32 -9 40 -8
39 3 47 -1 27 -16 -19 -14 -17 -15 17 -15 21 0 45 -4 55 -9 9 -5 26 -12 37
-16 19 -6 19 -7 3 -16 -24 -13 -23 -29 2 -29 10 0 24 9 30 20 8 15 8 20 -2 20
-9 0 -9 3 2 10 11 7 18 5 26 -6 11 -13 13 -13 27 1 10 9 34 15 66 15 31 0 51
4 51 11 0 7 -12 9 -36 4 -57 -10 -37 17 25 35 42 12 51 19 49 35 -2 14 4 21
20 23 23 4 31 -13 10 -21 -10 -4 -10 -6 0 -6 7 -1 15 6 18 14 4 8 15 15 26 15
11 0 32 14 46 32 15 17 37 41 50 54 14 13 19 25 13 29 -7 3 -7 13 -2 23 26 52
34 73 28 79 -4 3 -7 1 -7 -6 0 -7 -5 -9 -10 -6 -6 4 -8 16 -5 26 4 11 1 26 -5
34 -7 9 -10 26 -6 42 9 37 38 93 49 93 5 0 1 7 -7 16 -9 8 -16 21 -16 27 0 7
4 6 10 -3 7 -11 10 -6 10 20 0 31 3 35 25 35 28 0 30 -7 13 -35 -14 -22 -3
-39 14 -22 16 16 28 15 28 -2 0 -8 -7 -16 -15 -20 -19 -7 -20 -32 -1 -43 7 -4
17 -31 21 -59 6 -48 5 -52 -17 -58 -14 -5 -18 -9 -10 -13 20 -8 14 -27 -17
-47 -25 -17 -28 -24 -24 -55 4 -20 10 -39 15 -42 5 -3 11 -21 14 -41 4 -25 1
-39 -11 -52 -16 -16 -16 -18 0 -36 10 -11 14 -20 8 -20 -19 0 -1 -58 23 -70
18 -10 21 -16 13 -27 -8 -9 -7 -21 4 -45 21 -45 31 -88 20 -88 -5 0 -14 -13
-20 -30 -6 -17 -19 -30 -28 -30 -12 0 -16 -6 -12 -20 3 -11 0 -20 -5 -20 -6 0
-4 -8 4 -17 16 -19 20 -53 7 -53 -5 0 -15 13 -23 29 -18 33 -57 61 -103 71
-39 9 -60 -4 -71 -45 -11 -38 -45 -46 -63 -14 -14 26 -6 123 12 145 9 11 9 17
-1 29 -17 21 -36 19 -60 -7 -24 -26 -26 -9 -4 33 8 17 13 33 11 36 -3 2 -8 -5
-12 -16 -6 -20 -20 -25 -55 -22 -13 2 -13 1 0 -8 15 -10 13 -12 -12 -15 -8 -1
-12 -15 -11 -36 0 -19 -1 -27 -4 -17 -5 21 -28 18 -29 -4 -1 -25 -16 -49 -30
-49 -8 0 -14 -4 -14 -10 0 -5 -6 -10 -14 -10 -27 0 -27 -20 -1 -54 15 -20 22
-37 16 -40 -5 -4 -12 -2 -16 4 -3 5 -10 10 -16 10 -5 0 -4 -8 2 -19 8 -11 9
-26 4 -37 -5 -11 -9 -24 -10 -30 0 -6 -7 -19 -14 -28 -12 -15 -12 -19 1 -32
14 -14 14 -19 1 -44 -8 -16 -16 -48 -19 -71 -3 -24 -7 -47 -10 -51 -3 -4 -1
-8 3 -8 5 0 10 -19 12 -42 1 -23 7 -48 12 -55 6 -7 8 -26 4 -44 -7 -31 -6 -32
21 -25 21 5 25 4 14 -4 -12 -7 -12 -10 -1 -10 7 0 11 -6 8 -15 -11 -27 57 19
80 56 50 78 46 75 74 51 83 -70 113 -92 144 -103 42 -15 46 -27 8 -22 -16 3
-37 -3 -48 -11 -13 -10 -15 -15 -6 -16 7 0 22 -11 33 -25 11 -14 26 -25 34
-25 8 0 14 -9 14 -20 0 -16 7 -20 31 -20 27 0 31 -3 26 -22 -4 -12 -2 -27 3
-32 12 -16 -22 -114 -42 -119 -12 -4 -16 -14 -14 -41 2 -19 -1 -33 -5 -30 -5
3 -16 -4 -26 -15 -9 -11 -21 -17 -26 -14 -6 3 -16 -3 -24 -13 -14 -19 -14 -19
-29 0 -8 12 -14 15 -14 7 0 -10 -12 -12 -50 -7 -27 4 -50 3 -49 -1 0 -4 22
-26 49 -48 26 -22 50 -47 54 -55 8 -22 27 -50 61 -91 45 -55 65 -82 65 -90 0
-4 9 -11 20 -14 11 -4 18 -11 15 -16 -3 -4 9 -15 27 -23 19 -8 26 -15 16 -15
-9 -1 -20 -6 -24 -13 -4 -6 -3 -8 3 -5 6 4 13 -3 17 -16 10 -36 7 -47 -11 -47
-14 0 -13 -3 5 -16 18 -12 20 -19 12 -35 -6 -10 -20 -19 -31 -19 -14 0 -19 -5
-16 -14 3 -8 -1 -20 -9 -27 -18 -15 -2 -29 33 -29 33 0 38 -19 8 -30 -24 -9
-25 -12 -14 -26 12 -15 10 -16 -19 -10 -25 6 -32 4 -32 -8 0 -8 10 -17 23 -19
12 -3 5 -5 -15 -4 -20 1 -40 -2 -44 -6 -4 -4 5 -7 19 -7 29 0 36 -14 13 -23
-9 -4 -12 -14 -9 -26 4 -14 -1 -20 -19 -24 -23 -4 -23 -4 0 -6 17 -1 22 -7 22
-28 0 -35 -14 -58 -29 -49 -16 10 -14 0 3 -17 9 -8 12 -24 9 -36 -5 -21 -12
-22 -60 -4 -23 9 -13 -17 10 -27 20 -8 19 -9 -10 -9 -18 -1 -33 3 -33 8 0 5
-16 12 -36 15 -19 4 -38 14 -41 22 -3 7 -13 14 -22 14 -13 0 -13 2 -2 9 11 7
10 11 -7 20 -11 6 -25 11 -31 11 -5 0 -22 5 -38 11 -20 7 -24 12 -14 18 21 14
3 33 -19 21 -19 -10 -50 -4 -50 10 0 5 8 11 18 14 9 2 -1 4 -23 4 -57 -1 -67
1 -60 12 3 6 1 10 -4 10 -6 0 -11 5 -11 12 0 6 -7 20 -16 30 -15 16 -18 16
-29 2 -10 -14 -17 -11 -55 26 -33 32 -45 38 -52 28 -8 -10 -9 -10 -5 2 2 8 -7
25 -19 39 -12 13 -28 35 -36 50 -7 14 -18 32 -25 39 -7 7 -14 27 -17 45 -13
85 -14 107 -5 107 5 0 9 11 9 24 0 18 9 29 32 40 17 9 36 16 43 16 7 0 10 11
7 28 -2 17 2 35 10 43 8 8 13 20 10 28 -3 9 0 12 10 8 11 -4 15 1 16 20 0 27
-33 46 -58 33 -8 -4 -26 -6 -40 -5 -57 5 -87 -30 -96 -112 -19 -178 88 -398
287 -587 56 -53 103 -96 105 -96 2 0 31 -18 66 -40 72 -47 240 -130 313 -155
70 -24 215 -45 311 -45 415 -1 858 329 959 715 8 32 15 76 15 97 0 22 6 40 15
45 9 6 12 17 8 33 -6 22 -7 23 -15 4 -6 -13 -7 -10 -3 14 2 18 1 31 -4 28 -5
-3 -12 5 -15 18 -3 14 -13 32 -22 40 -28 29 6 17 48 -16 36 -30 39 -36 35 -68
-3 -19 -3 -29 0 -22 4 10 9 8 19 -5 11 -15 15 -16 23 -4 5 8 16 11 25 8 12 -5
16 0 17 16 1 17 2 18 6 5 6 -23 53 -25 53 -3 0 12 7 14 28 9 45 -12 166 -65
177 -78 6 -7 26 -15 46 -18 47 -8 169 -56 192 -76 20 -18 35 -9 18 12 -9 11
-9 16 0 21 8 6 8 9 0 15 -6 3 -14 31 -18 61 -5 42 -13 60 -35 81 -31 29 -83
58 -103 58 -7 0 -26 7 -43 15 -16 9 -47 16 -69 16 -54 1 -73 8 -73 27 0 11 -3
13 -8 5 -10 -16 -82 7 -82 26 0 10 -10 12 -40 8 -22 -3 -40 -2 -40 3 0 4 -12
11 -27 15 -19 4 -23 9 -14 14 13 9 -30 20 -91 24 -21 2 -31 10 -39 32 -6 17
-13 24 -16 18 -2 -7 -8 -13 -13 -13 -13 0 -31 65 -24 83 5 13 0 17 -22 18 -17
1 -22 3 -11 6 22 6 22 19 -3 50 -22 29 -27 99 -7 106 9 3 9 9 -1 27 -10 16
-12 41 -7 91 9 92 24 89 17 -3 -2 -40 -2 -70 2 -67 8 8 35 202 29 212 -2 4 -1
13 4 20 9 14 19 -24 23 -88 2 -30 5 -23 10 30 3 41 2 80 -4 94 -9 21 -6 27 23
51 22 19 28 29 19 33 -8 4 -9 6 -1 6 6 1 15 -3 18 -9 15 -24 20 -6 15 50 -3
33 -2 60 2 60 4 0 8 -6 8 -14 0 -8 7 -16 15 -20 9 -3 15 0 15 8 0 7 3 28 7 46
5 25 3 31 -6 25 -10 -6 -11 -3 -1 14 6 12 10 37 8 54 -2 26 1 32 15 30 16 -1
18 4 11 40 -3 23 -10 44 -14 47 -4 3 -10 18 -14 34 -6 24 -5 26 7 15 7 -8 17
-23 21 -34 8 -18 10 -16 18 14 6 23 6 37 -1 44 -15 15 -14 27 3 27 8 0 16 8
19 18 2 9 4 2 4 -16 0 -18 3 -35 6 -39 4 -3 7 15 7 41 0 29 -4 45 -10 41 -5
-3 -10 -2 -10 4 0 5 5 13 11 17 6 3 9 17 6 30 -2 13 -1 23 2 22 29 -3 33 3 16
22 -10 11 -15 28 -12 40 3 11 1 20 -5 20 -5 0 -6 5 -3 10 4 6 16 8 28 5 21 -6
22 -6 3 9 -11 9 -24 16 -30 16 -5 0 -2 6 8 13 16 12 16 15 1 51 -9 21 -14 48
-12 60 4 20 4 20 6 -2 0 -12 8 -25 16 -28 8 -4 15 -12 15 -20 0 -8 5 -14 10
-14 15 0 12 17 -7 46 -14 22 -15 31 -5 57 9 23 9 34 -1 45 -10 13 -7 15 25 9
22 -3 40 -1 44 5 7 11 -15 30 -27 22 -4 -2 -10 0 -14 6 -3 5 -1 10 6 10 10 0
10 3 1 12 -15 15 -16 32 -2 23 6 -4 10 7 10 24 0 17 -5 31 -11 31 -6 0 -3 7 5
16 20 19 20 31 1 51 -17 17 -10 37 11 29 9 -3 14 1 14 14 0 20 -16 34 -40 35
-10 0 -14 8 -13 23 2 12 -2 22 -7 22 -6 0 -10 -6 -10 -12 0 -7 -6 -4 -12 7 -6
11 -18 25 -27 31 -12 10 -13 15 -3 27 10 12 10 15 0 14 -37 -1 -48 4 -48 24 0
11 -4 17 -10 14 -13 -8 -13 8 1 22 8 8 8 17 0 30 -7 14 -7 24 2 33 9 9 9 14 1
17 -7 2 -10 13 -7 24 3 10 0 26 -7 34 -10 12 -9 16 5 21 12 5 15 14 11 30 -4
15 1 39 14 63 16 33 17 40 5 45 -8 3 -15 10 -15 16 0 6 4 9 9 5 5 -3 12 -1 16
5 3 5 1 10 -4 10 -6 0 -11 4 -11 10 0 5 6 9 12 7 15 -3 22 69 8 78 -16 10 -12
25 5 19 12 -5 12 0 5 26 -6 21 -6 39 1 52 7 13 7 23 -1 32 -8 10 -7 15 4 19
17 7 15 49 -4 72 -10 13 -9 15 9 15 21 0 21 1 -6 26 -23 21 -24 25 -8 20 18
-5 18 -4 -2 10 -26 18 -31 36 -8 28 29 -12 15 14 -15 26 -16 7 -30 19 -30 26
0 8 -4 14 -10 14 -5 0 -10 7 -10 16 0 11 6 14 20 9 16 -5 19 -3 13 12 -5 14 1
12 30 -10 26 -20 35 -23 30 -11 -5 13 -3 15 8 9 12 -8 12 -6 0 8 -7 9 -11 17
-8 17 4 0 -12 19 -33 41 -22 23 -37 46 -34 50 3 5 12 2 20 -6 9 -8 18 -15 22
-15 3 0 1 5 -6 12 -16 16 -15 28 3 28 8 0 15 4 15 10 0 13 -41 50 -56 50 -23
0 -64 23 -64 35 0 6 -12 17 -26 23 -18 9 -23 9 -18 1 4 -8 -1 -9 -17 -4 -30 9
-45 22 -35 32 4 4 11 1 16 -7 13 -22 23 -5 11 19 -8 13 -26 22 -59 27 l-47 8
35 6 c19 3 37 2 38 -2 6 -14 19 -9 19 7 0 12 -19 15 -109 15 -72 0 -107 3
-103 10 4 6 12 10 18 9 7 -1 19 -1 27 0 12 1 12 3 2 10 -13 8 -63 0 -126 -20
-16 -5 -32 -7 -34 -4 -9 8 10 25 29 25 26 0 70 29 63 42 -3 5 -15 6 -26 2 -14
-4 -18 -2 -14 5 10 16 -10 14 -47 -5 l-32 -16 28 27 c16 15 26 30 22 33 -5 5
-65 -47 -107 -93 -15 -17 -19 -18 -27 -6 -7 11 -10 7 -13 -15 l-3 -29 -18 33
c-10 18 -22 30 -27 27 -5 -3 -8 3 -7 12 1 24 -50 111 -74 123 -18 10 -41 51
-54 98 -3 12 -11 22 -16 22 -5 0 -9 6 -9 13 0 8 -7 14 -15 14 -8 0 -15 -2 -15
-4z m-110 -174 c0 -6 -4 -7 -10 -4 -5 3 -10 11 -10 16 0 6 5 7 10 4 6 -3 10
-11 10 -16z m229 6 c5 2 13 -7 19 -20 7 -14 9 -25 6 -25 -9 0 -43 44 -43 55 0
6 3 4 6 -3 2 -6 8 -10 12 -7z m301 -145 c-20 -13 -33 -13 -25 0 3 6 14 10 23
10 15 0 15 -2 2 -10z m-253 -22 c-3 -8 -6 -5 -6 6 -1 11 2 17 5 13 3 -3 4 -12
1 -19z m143 -32 c0 -11 -19 -15 -25 -6 -3 5 1 10 9 10 9 0 16 -2 16 -4z
m-1110 -786 c0 -5 -7 -10 -15 -10 -8 0 -15 5 -15 10 0 6 7 10 15 10 8 0 15 -4
15 -10z m55 -31 c11 -17 -5 -25 -16 -9 -9 12 -10 12 -5 -3 3 -10 6 -25 6 -33
0 -26 28 -14 49 21 12 21 28 35 38 34 17 -1 17 -2 1 -6 -25 -6 -22 -29 5 -37
21 -6 21 -7 3 -17 -14 -9 -21 -8 -28 2 -8 11 -9 10 -4 -3 3 -12 0 -18 -10 -18
-8 0 -13 -4 -9 -9 8 -14 -12 -23 -36 -16 -17 6 -19 9 -8 16 11 7 11 9 1 9 -7
0 -15 -7 -18 -15 -4 -8 -10 -15 -15 -15 -14 0 -11 28 4 33 6 3 0 6 -15 6 -16
1 -27 -2 -25 -6 2 -9 -7 -13 -30 -13 -14 0 -15 2 -4 9 7 5 14 20 14 35 0 18 5
26 18 26 10 0 21 5 24 10 8 13 52 13 60 -1z m-295 -89 c0 -5 -4 -10 -10 -10
-5 0 -10 5 -10 10 0 6 5 10 10 10 6 0 10 -4 10 -10z m130 -10 c0 -5 -4 -10 -9
-10 -6 0 -13 5 -16 10 -3 6 1 10 9 10 9 0 16 -4 16 -10z m219 -14 c-11 -9 -90
-16 -84 -6 3 5 25 10 47 10 23 0 39 -2 37 -4z m-200 -42 c3 -3 0 -9 -5 -14 -6
-6 -16 -2 -28 11 -17 20 -17 21 6 14 13 -4 25 -9 27 -11z m469 -233 c-1 -3 2
-14 7 -24 7 -16 8 -16 19 -2 10 14 12 11 11 -17 0 -28 -4 -33 -27 -36 -22 -3
-28 1 -28 16 0 11 -7 22 -15 26 -8 3 -15 14 -15 24 0 14 7 20 25 20 13 0 24
-3 23 -7z m87 -60 c1 -23 -2 -27 -17 -23 -21 5 -21 3 -8 38 12 32 23 26 25
-15z m-655 5 c0 -2 -7 -7 -16 -10 -8 -3 -12 -2 -9 4 6 10 25 14 25 6z m-65
-45 c-6 -5 -21 -12 -35 -16 -24 -7 -24 -7 -5 9 21 16 56 23 40 7z m-18 -67
c-3 -3 -12 -4 -19 -1 -8 3 -5 6 6 6 11 1 17 -2 13 -5z m1153 -34 c0 -5 -2 -10
-4 -10 -3 0 -8 5 -11 10 -3 6 -1 10 4 10 6 0 11 -4 11 -10z m-1031 -93 c-2 -2
-24 -18 -49 -36 l-45 -33 37 36 c21 20 43 36 50 36 6 0 9 -1 7 -3z m85 -95
c-1 -2 -16 -1 -33 3 l-31 7 22 31 22 30 12 -34 c6 -19 10 -36 8 -37z m900 32
c18 -17 21 -34 7 -34 -23 0 -41 14 -41 31 0 23 13 24 34 3z m-939 -94 c3 -5 1
-10 -5 -10 -6 0 -9 -4 -6 -8 7 -12 -65 -14 -83 -3 -7 5 -10 14 -7 20 9 14 93
15 101 1z m-155 -127 c0 -20 -24 -11 -28 10 -2 12 1 15 12 11 9 -3 16 -13 16
-21z m1851 -154 c-5 -13 -10 -19 -10 -12 -1 15 10 45 15 40 3 -2 0 -15 -5 -28z
m37 -78 c-4 -19 -22 -18 -26 2 -2 7 4 14 13 14 9 0 15 -7 13 -16z m-51 -23
c-3 -8 -6 -5 -6 6 -1 11 2 17 5 13 3 -3 4 -12 1 -19z m88 12 c3 -5 1 -10 -4
-10 -6 0 -11 5 -11 10 0 6 2 10 4 10 3 0 8 -4 11 -10z m-1535 -176 c0 -22 4
-33 13 -31 7 1 12 -8 11 -20 0 -17 5 -23 20 -23 17 0 18 -2 6 -10 -13 -9 -13
-11 0 -20 13 -9 13 -11 0 -20 -12 -8 -11 -10 7 -10 16 0 21 4 17 15 -4 8 -1
15 5 15 6 0 11 -6 11 -14 0 -8 10 -16 22 -18 21 -3 21 -4 -7 -36 -15 -18 -24
-36 -21 -40 4 -4 16 4 26 18 11 14 20 23 21 20 0 -3 3 -18 5 -35 6 -36 14 -46
14 -17 0 12 5 22 11 22 6 0 9 -14 7 -32 -3 -31 0 -34 37 -45 l40 -11 -49 -1
c-30 -1 -67 -10 -98 -26 -27 -14 -54 -25 -60 -25 -5 0 -22 -9 -37 -19 -24 -18
-30 -18 -52 -6 -13 8 -39 21 -57 30 -18 9 -35 22 -39 30 -3 9 -10 15 -17 14
-28 -3 -31 6 -33 87 -2 74 -1 85 13 80 8 -3 12 -2 9 4 -3 6 1 10 10 10 9 0 21
13 27 30 9 26 34 50 52 50 2 0 6 -10 8 -22 3 -20 6 -17 22 17 11 22 19 42 19
45 -1 3 3 13 8 23 14 26 29 11 29 -29z m1507 9 c-3 -10 -5 -4 -5 12 0 17 2 24
5 18 2 -7 2 -21 0 -30z m-1577 -13 c0 -5 -5 -10 -11 -10 -5 0 -7 5 -4 10 3 6
8 10 11 10 2 0 4 -4 4 -10z m282 -49 c-5 -3 -11 -15 -13 -26 -5 -25 -44 -32
-63 -12 -13 13 -12 17 10 36 37 32 68 42 72 23 2 -8 0 -17 -6 -21z m1278 0 c0
-6 -4 -13 -10 -16 -5 -3 -10 1 -10 9 0 9 5 16 10 16 6 0 10 -4 10 -9z m-1308
-121 c-12 -11 -24 -20 -28 -20 -4 0 1 9 11 20 10 11 23 20 28 20 6 0 1 -9 -11
-20z m1188 -200 c0 -5 -2 -10 -4 -10 -3 0 -8 5 -11 10 -3 6 -1 10 4 10 6 0 11
-4 11 -10z m-96 -75 c-4 -8 -8 -15 -10 -15 -2 0 -4 7 -4 15 0 8 4 15 10 15 5
0 7 -7 4 -15z m63 -17 c-3 -8 -6 -5 -6 6 -1 11 2 17 5 13 3 -3 4 -12 1 -19z
m-151 -85 c3 -43 1 -54 -7 -43 -8 11 -9 -3 -6 -55 2 -38 2 -62 0 -52 -3 9 -11
17 -18 17 -7 0 -16 8 -18 18 -3 11 -5 8 -5 -8 -1 -14 -2 -58 -2 -97 -1 -43 -6
-73 -12 -73 -15 0 -4 247 13 285 19 43 41 76 46 71 3 -3 7 -31 9 -63z m44 -9
c-8 -35 -20 -57 -20 -37 0 25 13 73 20 73 4 0 4 -16 0 -36z m43 -29 c4 -35 3
-44 -4 -30 -7 15 -8 8 -5 -25 4 -44 4 -45 -10 -17 -10 19 -12 33 -5 45 5 10 9
24 9 32 -2 25 2 54 6 49 2 -2 6 -26 9 -54z m-53 -59 c0 -8 -4 -17 -9 -20 -10
-7 -23 19 -14 28 11 11 23 6 23 -8z m80 -16 c0 -11 -4 -20 -10 -20 -5 0 -10 9
-10 20 0 11 5 20 10 20 6 0 10 -9 10 -20z m-20 -60 c0 -10 -4 -22 -10 -25 -6
-4 -10 7 -10 25 0 18 4 29 10 25 6 -3 10 -15 10 -25z m-120 -27 c0 -35 -3 -44
-10 -33 -16 25 -11 80 7 80 2 0 3 -21 3 -47z m111 -56 c-8 -8 -11 -3 -11 19 1
25 2 27 11 11 8 -14 8 -22 0 -30z m-94 -9 c-3 -8 -6 -5 -6 6 -1 11 2 17 5 13
3 -3 4 -12 1 -19z m-48 -70 c-1 -31 -1 -31 -8 -8 -5 14 -6 28 -4 33 9 15 13 6
12 -25z"/>
<path d="M3590 5470 c0 -13 5 -20 13 -17 6 2 12 10 12 17 0 7 -6 15 -12 18 -8
2 -13 -5 -13 -18z"/>
<path d="M3501 5410 c-19 -16 -20 -20 -6 -20 16 0 45 22 45 34 0 11 -15 5 -39
-14z"/>
<path d="M3408 5410 c-2 -6 -13 -12 -26 -13 -30 -2 -28 -27 3 -27 14 0 25 -4
25 -10 0 -5 8 -10 18 -10 16 1 16 1 0 11 -21 12 -24 31 -5 28 24 -3 37 1 37
12 0 6 -6 9 -14 6 -7 -3 -18 -1 -24 5 -6 6 -11 6 -14 -2z"/>
<path d="M3458 5353 c7 -3 16 -2 19 1 4 3 -2 6 -13 5 -11 0 -14 -3 -6 -6z"/>
<path d="M4677 5067 c-3 -8 -2 -18 3 -23 5 -5 11 -22 13 -39 3 -16 4 -9 3 17
-2 50 -10 68 -19 45z"/>
<path d="M5215 6347 c-4 -10 -5 -21 -1 -24 10 -10 18 4 13 24 -4 17 -4 17 -12
0z"/>
<path d="M5170 6166 c0 -2 7 -7 16 -10 8 -3 12 -2 9 4 -6 10 -25 14 -25 6z"/>
<path d="M2855 5946 c-14 -14 -25 -34 -25 -45 0 -24 20 -71 31 -71 4 0 22 -19
39 -42 l32 -43 -7 45 c-3 25 -7 68 -8 96 -1 32 -8 56 -19 68 -17 16 -19 16
-43 -8z"/>
<path d="M3805 5880 c3 -5 13 -10 21 -10 8 0 12 5 9 10 -3 6 -13 10 -21 10 -8
0 -12 -4 -9 -10z"/>
<path d="M3356 5772 c-9 -15 4 -42 20 -42 17 0 17 10 0 33 -8 10 -17 14 -20 9z"/>
<path d="M5064 5584 c3 -9 6 -18 6 -20 0 -3 5 -2 10 1 16 10 12 35 -6 35 -11
0 -14 -5 -10 -16z"/>
<path d="M5027 5413 c-10 -9 -9 -23 2 -23 5 0 11 7 15 15 5 15 -5 20 -17 8z"/>
<path d="M4950 5299 c7 -11 14 -18 17 -15 8 8 -5 36 -17 36 -7 0 -7 -6 0 -21z"/>
<path d="M4962 5210 c0 -14 2 -19 5 -12 2 6 2 18 0 25 -3 6 -5 1 -5 -13z"/>
<path d="M4901 5184 c0 -11 3 -14 6 -6 3 7 2 16 -1 19 -3 4 -6 -2 -5 -13z"/>
<path d="M4874 4937 c-1 -30 -1 -30 9 -9 6 14 7 26 1 32 -5 5 -9 -4 -10 -23z"/>
<path d="M5060 4370 c0 -5 5 -10 10 -10 6 0 10 5 10 10 0 6 -4 10 -10 10 -5 0
-10 -4 -10 -10z"/>
<path d="M5300 4371 c0 -5 8 -11 18 -15 9 -3 24 -9 32 -12 8 -3 4 4 -10 15
-27 22 -40 26 -40 12z"/>
<path d="M5105 4351 c-3 -5 -1 -12 5 -16 5 -3 10 1 10 9 0 18 -6 21 -15 7z"/>
<path d="M5118 4313 c7 -3 16 -2 19 1 4 3 -2 6 -13 5 -11 0 -14 -3 -6 -6z"/>
<path d="M5345 4280 c3 -5 8 -10 11 -10 2 0 4 5 4 10 0 6 -5 10 -11 10 -5 0
-7 -4 -4 -10z"/>
<path d="M5090 4189 c0 -5 5 -7 10 -4 6 3 10 8 10 11 0 2 -4 4 -10 4 -5 0 -10
-5 -10 -11z"/>
<path d="M5526 4141 c-4 -5 3 -7 14 -4 23 6 26 13 6 13 -8 0 -17 -4 -20 -9z"/>
<path d="M5040 4130 c0 -5 5 -10 11 -10 5 0 7 5 4 10 -3 6 -8 10 -11 10 -2 0
-4 -4 -4 -10z"/>
<path d="M5020 4089 c0 -5 5 -7 10 -4 6 3 10 8 10 11 0 2 -4 4 -10 4 -5 0 -10
-5 -10 -11z"/>
<path d="M5765 4054 c-19 -15 -19 -15 10 -12 17 2 29 7 28 13 -3 16 -17 15
-38 -1z"/>
<path d="M5150 4045 c0 -8 5 -15 10 -15 6 0 10 7 10 15 0 8 -4 15 -10 15 -5 0
-10 -7 -10 -15z"/>
<path d="M2235 4040 c-3 -5 1 -10 10 -10 9 0 13 5 10 10 -3 6 -8 10 -10 10 -2
0 -7 -4 -10 -10z"/>
<path d="M5830 4023 c0 -5 4 -15 10 -23 11 -18 25 -7 17 15 -6 15 -27 21 -27
8z"/>
<path d="M5020 3980 c0 -5 9 -10 19 -10 11 0 23 5 26 10 4 6 -5 10 -19 10 -14
0 -26 -4 -26 -10z"/>
<path d="M5108 3933 c6 -2 10 -9 7 -14 -4 -5 1 -6 9 -3 24 9 19 24 -6 23 -13
0 -17 -3 -10 -6z"/>
<path d="M5590 3930 c0 -5 5 -10 11 -10 5 0 7 5 4 10 -3 6 -8 10 -11 10 -2 0
-4 -4 -4 -10z"/>
<path d="M5555 3920 c3 -5 8 -10 11 -10 2 0 4 5 4 10 0 6 -5 10 -11 10 -5 0
-7 -4 -4 -10z"/>
<path d="M5331 3901 c-10 -6 -10 -10 -1 -16 13 -8 24 -1 19 14 -3 6 -10 7 -18
2z"/>
<path d="M3663 3870 c1 -11 5 -20 9 -20 4 0 8 9 8 20 0 11 -4 20 -9 20 -6 0
-9 -9 -8 -20z"/>
<path d="M5270 3870 c0 -5 5 -10 10 -10 6 0 10 5 10 10 0 6 -4 10 -10 10 -5 0
-10 -4 -10 -10z"/>
<path d="M1980 3830 c0 -5 5 -10 11 -10 5 0 7 5 4 10 -3 6 -8 10 -11 10 -2 0
-4 -4 -4 -10z"/>
<path d="M5115 3830 c3 -5 8 -10 11 -10 2 0 4 5 4 10 0 6 -5 10 -11 10 -5 0
-7 -4 -4 -10z"/>
<path d="M5140 3819 c0 -5 5 -7 10 -4 6 3 10 8 10 11 0 2 -4 4 -10 4 -5 0 -10
-5 -10 -11z"/>
<path d="M6235 3820 c3 -5 11 -10 16 -10 6 0 7 5 4 10 -3 6 -11 10 -16 10 -6
0 -7 -4 -4 -10z"/>
<path d="M5300 3800 c0 -5 7 -10 15 -10 8 0 15 5 15 10 0 6 -7 10 -15 10 -8 0
-15 -4 -15 -10z"/>
<path d="M5365 3800 c3 -5 8 -10 11 -10 2 0 4 5 4 10 0 6 -5 10 -11 10 -5 0
-7 -4 -4 -10z"/>
<path d="M6180 3775 c0 -8 5 -15 10 -15 6 0 10 7 10 15 0 8 -4 15 -10 15 -5 0
-10 -7 -10 -15z"/>
<path d="M2305 3730 c-3 -5 -1 -10 4 -10 6 0 11 5 11 10 0 6 -2 10 -4 10 -3 0
-8 -4 -11 -10z"/>
<path d="M5046 3731 c-4 -7 -5 -15 -2 -18 9 -9 19 4 14 18 -4 11 -6 11 -12 0z"/>
<path d="M6386 3722 c-3 -6 -1 -14 5 -17 15 -10 25 3 12 16 -7 7 -13 7 -17 1z"/>
<path d="M4808 3710 c-2 -8 1 -21 9 -28 11 -11 16 -11 29 2 14 15 14 16 -4 16
-11 0 -22 6 -24 13 -3 8 -6 8 -10 -3z"/>
<path d="M5770 3710 c0 -5 4 -10 9 -10 6 0 13 5 16 10 3 6 -1 10 -9 10 -9 0
-16 -4 -16 -10z"/>
<path d="M5036 3691 c-4 -5 -2 -12 3 -15 5 -4 12 -2 15 3 4 5 2 12 -3 15 -5 4
-12 2 -15 -3z"/>
<path d="M1884 3666 c-10 -8 -16 -17 -12 -21 8 -8 48 13 48 25 0 14 -13 12
-36 -4z"/>
<path d="M5430 3670 c0 -5 5 -10 10 -10 6 0 10 5 10 10 0 6 -4 10 -10 10 -5 0
-10 -4 -10 -10z"/>
<path d="M5950 3650 c0 -5 5 -10 10 -10 6 0 10 5 10 10 0 6 -4 10 -10 10 -5 0
-10 -4 -10 -10z"/>
<path d="M1900 3629 c0 -5 5 -7 10 -4 6 3 10 8 10 11 0 2 -4 4 -10 4 -5 0 -10
-5 -10 -11z"/>
<path d="M6330 3610 c0 -5 5 -10 10 -10 6 0 10 5 10 10 0 6 -4 10 -10 10 -5 0
-10 -4 -10 -10z"/>
<path d="M6250 3600 c0 -5 7 -10 15 -10 8 0 15 5 15 10 0 6 -7 10 -15 10 -8 0
-15 -4 -15 -10z"/>
<path d="M6430 3580 c0 -5 5 -10 10 -10 6 0 10 5 10 10 0 6 -4 10 -10 10 -5 0
-10 -4 -10 -10z"/>
<path d="M1973 3565 c-3 -9 -3 -18 0 -21 9 -9 27 6 27 22 0 19 -19 18 -27 -1z"/>
<path d="M6030 3570 c0 -5 7 -10 16 -10 8 0 12 5 9 10 -3 6 -10 10 -16 10 -5
0 -9 -4 -9 -10z"/>
<path d="M2010 3560 c0 -5 5 -10 10 -10 6 0 10 5 10 10 0 6 -4 10 -10 10 -5 0
-10 -4 -10 -10z"/>
<path d="M4900 3550 c0 -5 7 -10 15 -10 8 0 15 5 15 10 0 6 -7 10 -15 10 -8 0
-15 -4 -15 -10z"/>
<path d="M5500 3540 c0 -5 7 -10 16 -10 8 0 12 5 9 10 -3 6 -10 10 -16 10 -5
0 -9 -4 -9 -10z"/>
<path d="M6450 3509 c0 -5 5 -7 10 -4 6 3 10 8 10 11 0 2 -4 4 -10 4 -5 0 -10
-5 -10 -11z"/>
<path d="M1925 3490 c-3 -5 -1 -10 4 -10 6 0 11 5 11 10 0 6 -2 10 -4 10 -3 0
-8 -4 -11 -10z"/>
<path d="M5525 3480 c3 -5 11 -10 16 -10 6 0 7 5 4 10 -3 6 -11 10 -16 10 -6
0 -7 -4 -4 -10z"/>
<path d="M6410 3479 c0 -5 5 -7 10 -4 6 3 10 8 10 11 0 2 -4 4 -10 4 -5 0 -10
-5 -10 -11z"/>
<path d="M6206 3461 c-3 -5 1 -11 9 -15 8 -3 15 -1 15 4 0 13 -18 22 -24 11z"/>
<path d="M2230 3450 c0 -5 4 -10 9 -10 6 0 13 5 16 10 3 6 -1 10 -9 10 -9 0
-16 -4 -16 -10z"/>
<path d="M5665 3450 c3 -5 10 -10 16 -10 5 0 9 5 9 10 0 6 -7 10 -16 10 -8 0
-12 -4 -9 -10z"/>
<path d="M5713 3453 c9 -2 23 -2 30 0 6 3 -1 5 -18 5 -16 0 -22 -2 -12 -5z"/>
<path d="M6415 3450 c3 -5 10 -10 16 -10 5 0 9 5 9 10 0 6 -7 10 -16 10 -8 0
-12 -4 -9 -10z"/>
<path d="M6500 3436 c0 -14 4 -27 8 -30 5 -3 6 8 4 25 -5 35 -12 38 -12 5z"/>
<path d="M6375 3430 c4 -6 11 -8 16 -5 14 9 11 15 -7 15 -8 0 -12 -5 -9 -10z"/>
<path d="M4135 3410 c-3 -5 1 -10 9 -10 9 0 16 5 16 10 0 6 -4 10 -9 10 -6 0
-13 -4 -16 -10z"/>
<path d="M4190 3409 c0 -5 5 -7 10 -4 6 3 10 8 10 11 0 2 -4 4 -10 4 -5 0 -10
-5 -10 -11z"/>
<path d="M1940 3390 c0 -5 5 -10 10 -10 6 0 10 5 10 10 0 6 -4 10 -10 10 -5 0
-10 -4 -10 -10z"/>
<path d="M4420 3390 c0 -5 5 -10 10 -10 6 0 10 5 10 10 0 6 -4 10 -10 10 -5 0
-10 -4 -10 -10z"/>
<path d="M6167 3215 c0 -101 4 -188 7 -193 3 -6 -2 -13 -12 -17 -16 -6 -16 -7
-1 -18 47 -35 24 -669 -30 -832 -6 -16 -15 -50 -21 -74 -12 -45 -23 -45 -35
-1 -5 20 -4 22 5 10 9 -12 10 -11 6 6 -4 11 -7 42 -8 69 -2 37 -7 49 -20 53
-20 5 -23 17 -8 27 7 4 7 13 0 26 -6 11 -16 16 -22 13 -7 -4 -8 -3 -4 4 5 9
13 9 27 2 16 -9 19 -7 19 10 0 12 -4 18 -10 15 -6 -4 -10 10 -10 34 0 22 5 43
10 46 14 9 12 25 -3 25 -7 0 -18 -9 -25 -21 -7 -12 -16 -19 -18 -16 -3 3 2 16
10 29 12 19 15 39 10 86 -7 62 -24 86 -24 35 0 -16 -3 -39 -7 -52 -4 -16 -3
-22 5 -17 6 3 13 2 17 -4 3 -5 -1 -10 -10 -10 -11 0 -14 -7 -11 -25 3 -13 1
-27 -4 -30 -5 -3 -6 -13 -3 -21 5 -13 1 -15 -15 -9 -18 5 -22 2 -22 -15 0 -15
5 -20 15 -17 11 5 12 1 5 -17 -5 -13 -6 -26 -4 -29 3 -3 -1 -16 -10 -29 -8
-12 -18 -42 -22 -65 -4 -24 -11 -43 -16 -43 -6 0 -8 -11 -6 -25 3 -14 1 -25
-3 -25 -5 0 -9 14 -9 30 0 38 -16 39 -25 3 -9 -36 -17 -101 -18 -135 0 -16 -4
-28 -10 -28 -5 0 -4 -7 3 -15 8 -9 10 -30 6 -57 -3 -24 -7 -52 -9 -63 -1 -11
-6 -25 -10 -32 -4 -6 -2 -15 4 -19 8 -4 7 -9 -2 -15 -11 -7 -10 -9 4 -9 15 0
16 -3 7 -20 -6 -11 -7 -20 -2 -20 11 0 3 -101 -9 -114 -5 -6 -11 -1 -15 10 -4
10 -14 27 -21 36 -8 9 -12 21 -9 27 4 6 1 23 -7 38 -7 15 -15 46 -16 68 -1 22
-7 42 -12 46 -6 3 -1 9 10 12 12 3 21 11 21 17 0 8 -8 10 -20 7 -16 -4 -20 -1
-18 11 1 9 0 22 -4 27 -3 6 -9 31 -13 55 -4 25 -10 49 -15 54 -5 5 -6 15 -3
22 3 8 0 14 -7 14 -10 0 -10 3 0 15 13 16 6 35 -15 35 -11 0 -13 -8 -9 -29 4
-16 1 -32 -5 -35 -8 -5 -8 -13 -1 -26 5 -10 12 -55 16 -101 3 -46 8 -102 9
-124 2 -22 6 -56 9 -75 3 -21 1 -37 -7 -42 -9 -6 -9 -8 1 -8 6 0 12 -4 12 -10
0 -5 -7 -10 -15 -10 -8 0 -15 -7 -15 -15 0 -8 7 -15 15 -15 10 0 15 -10 15
-29 0 -16 3 -43 7 -61 4 -24 3 -31 -5 -26 -7 4 -12 1 -12 -8 0 -8 8 -20 18
-25 15 -9 13 -10 -8 -8 -17 1 -25 -3 -25 -13 0 -8 7 -14 16 -14 13 1 15 -7 13
-43 -2 -25 3 -60 11 -79 8 -19 10 -32 5 -29 -6 4 -10 -8 -11 -27 0 -18 -1 -48
-2 -66 -1 -17 1 -32 4 -32 4 0 9 -9 12 -20 3 -11 2 -18 -2 -16 -4 3 -8 -72 -9
-166 -1 -112 -5 -175 -13 -184 -8 -10 -8 -18 -1 -26 14 -18 18 -99 5 -123 -5
-11 -11 -42 -12 -70 -1 -30 -8 -54 -16 -61 -17 -13 -20 -34 -5 -34 21 0 9 -21
-17 -31 -20 -7 -24 -12 -14 -18 7 -5 9 -11 4 -14 -15 -9 -55 70 -48 93 7 24
-10 27 -19 4 -3 -9 -6 -27 -6 -40 0 -15 -6 -24 -15 -24 -13 0 -15 -7 -9 -36 5
-26 3 -39 -7 -45 -8 -5 -9 -9 -3 -9 6 0 10 -26 8 -68 -1 -37 2 -84 6 -104 7
-31 4 -40 -14 -53 -14 -11 -17 -17 -9 -21 9 -4 11 -18 7 -45 -5 -32 -4 -39 10
-39 9 0 16 6 16 13 1 13 45 67 55 67 3 0 -6 -17 -20 -37 -22 -33 -23 -38 -9
-41 9 -2 20 2 25 10 6 10 9 10 9 1 0 -10 173 -13 830 -13 657 0 830 3 830 13
0 6 -5 57 -10 112 -6 55 -13 125 -15 155 -3 30 -10 78 -15 105 -16 88 -40 229
-45 270 -3 22 -7 61 -10 86 l-6 47 50 31 c57 37 81 61 60 61 -8 0 -4 8 9 20
12 12 22 31 22 43 0 12 7 31 15 41 19 26 19 56 0 56 -18 0 -18 -1 0 44 8 20
11 36 6 36 -5 0 -9 6 -8 12 2 64 -14 91 -27 45 -5 -18 -8 -20 -16 -7 -14 20
-31 83 -41 150 -4 30 -11 70 -15 88 -4 21 -2 32 5 32 7 0 5 10 -6 27 -11 16
-17 46 -17 80 0 35 -4 53 -13 53 -8 0 -12 24 -12 84 1 47 -5 110 -11 141 -6
31 -9 63 -6 71 3 8 0 25 -6 39 -7 17 -8 28 -1 37 12 15 11 47 -1 66 -4 7 -2
20 6 29 11 15 11 16 -5 10 -15 -5 -16 -4 -7 13 5 10 10 27 9 37 0 16 -1 16 -9
-2 -8 -18 -9 -17 -9 8 -1 35 -54 212 -75 252 -9 17 -16 37 -16 45 0 8 -20 69
-45 135 -46 121 -50 130 -80 198 -9 21 -23 61 -32 90 -13 45 -71 171 -121 262
-9 17 -40 58 -69 93 -29 34 -53 67 -53 72 0 6 -4 10 -9 10 -9 0 15 -87 43
-151 8 -20 12 -39 9 -43 -3 -3 1 -14 9 -23 16 -19 31 -51 33 -68 0 -5 3 -14 7
-20 3 -5 24 -55 46 -110 22 -55 57 -136 77 -179 47 -103 76 -184 136 -376 18
-57 40 -111 49 -120 10 -8 37 -57 61 -108 39 -85 42 -96 31 -125 -8 -21 -9
-33 -2 -35 5 -2 10 -11 10 -20 0 -13 -2 -14 -9 -4 -13 22 -24 -54 -12 -91 5
-18 12 -58 14 -89 5 -57 5 -58 -39 -107 -42 -47 -125 -102 -189 -127 -16 -6
-48 -18 -70 -27 -53 -21 -336 -82 -450 -97 -136 -17 -376 4 -334 31 7 4 10 11
6 15 -3 4 -12 2 -19 -4 -10 -8 -13 -4 -14 14 -1 13 3 24 8 24 6 0 8 12 5 29
-4 19 -2 31 6 35 9 3 9 7 1 13 -32 24 -37 77 -11 111 5 7 7 15 4 19 -4 3 17
40 45 82 28 42 63 93 76 114 14 21 40 45 59 53 33 16 47 31 18 21 -27 -11 -27
13 0 45 25 30 95 166 95 186 0 5 7 15 15 22 8 7 15 19 15 27 0 7 7 30 17 51
58 131 108 331 120 487 12 144 8 382 -7 480 -7 50 -14 101 -15 115 -2 14 -3
30 -4 36 0 7 -8 14 -16 17 -11 5 -12 1 -6 -16 5 -12 9 -41 9 -63 0 -23 6 -88
12 -145 15 -133 1 -445 -26 -584 -9 -44 -64 -247 -74 -270 -51 -116 -70 -155
-78 -155 -6 0 -8 -8 -6 -17 5 -19 -80 -170 -119 -213 -12 -14 -28 -36 -35 -50
-7 -14 -28 -42 -47 -64 -19 -21 -35 -42 -35 -47 0 -5 -4 -9 -10 -9 -17 0 -11
36 15 92 14 29 25 59 25 67 0 8 16 48 36 90 114 241 199 464 223 591 9 49 26
240 24 280 -8 170 -3 250 16 310 11 35 19 66 17 67 -4 5 -48 -122 -80 -232
-15 -49 -40 -130 -56 -180 -71 -218 -84 -270 -86 -350 -1 -76 -35 -242 -56
-275 -7 -12 -8 -11 -4 5 2 11 12 76 22 145 9 69 20 129 25 135 13 13 11 38 -2
30 -7 -5 -8 22 -3 91 8 106 8 328 0 409 -2 28 -8 111 -11 185 -9 180 -9 173
-20 177 -6 2 -9 -62 -8 -182z m218 -312 c-13 -308 -49 -458 -174 -735 -11 -27
-31 -69 -42 -95 -12 -27 -28 -61 -35 -78 -38 -87 5 95 59 250 13 39 28 85 32
103 3 17 11 32 17 32 6 0 7 7 4 16 -9 24 12 191 34 265 11 36 20 75 20 85 -1
19 82 304 88 304 2 0 1 -66 -3 -147z m-365 -657 c0 5 9 -8 20 -29 17 -32 19
-49 14 -105 -6 -67 -22 -122 -36 -122 -14 0 -9 -30 5 -30 6 0 4 -5 -6 -11 -13
-8 -17 -18 -13 -34 5 -18 2 -22 -12 -19 -13 4 -17 15 -16 52 2 77 3 82 22 82
10 0 13 3 6 8 -17 11 -15 78 3 94 9 7 19 12 22 10 11 -6 13 30 2 41 -9 9 -14
8 -20 -1 -6 -10 -10 -4 -15 18 -10 54 -8 64 9 50 8 -7 15 -9 15 -4z m57 -256
c1 -11 -2 -18 -8 -15 -11 7 -12 35 -1 35 4 0 8 -9 9 -20z m-7 -39 c0 -6 -5
-13 -10 -16 -6 -4 -7 -11 -4 -17 4 -6 2 -8 -4 -5 -12 8 -4 47 9 47 5 0 9 -4 9
-9z m-443 -1573 c-3 -8 -6 -5 -6 6 -1 11 2 17 5 13 3 -3 4 -12 1 -19z m83 12
c0 -5 -2 -10 -4 -10 -3 0 -8 5 -11 10 -3 6 -1 10 4 10 6 0 11 -4 11 -10z m10
-30 c0 -5 -4 -10 -10 -10 -5 0 -10 5 -10 10 0 6 5 10 10 10 6 0 10 -4 10 -10z
m-41 -27 c9 -15 12 -15 20 -4 5 7 11 9 14 4 4 -6 0 -19 -8 -29 -8 -10 -15 -27
-15 -36 0 -10 -2 -18 -4 -18 -2 0 -11 -3 -19 -6 -12 -4 -15 5 -16 50 0 57 10
70 28 39z m-59 -32 c0 -6 -4 -13 -10 -16 -5 -3 -10 1 -10 9 0 9 5 16 10 16 6
0 10 -4 10 -9z m10 -68 c0 -5 -5 -15 -10 -23 -8 -12 -10 -11 -10 8 0 12 5 22
10 22 6 0 10 -3 10 -7z m30 -38 c-21 -26 -31 -16 -13 11 9 15 19 21 21 15 2
-6 -2 -18 -8 -26z m35 -7 c-2 -18 -8 -32 -14 -31 -6 2 -8 -5 -4 -15 4 -12 3
-14 -5 -7 -9 8 -7 20 5 48 10 20 18 37 19 37 1 0 0 -15 -1 -32z m-88 -50 c-3
-7 -5 -2 -5 12 0 14 2 19 5 13 2 -7 2 -19 0 -25z m33 6 c0 -8 -5 -12 -10 -9
-6 4 -8 11 -5 16 9 14 15 11 15 -7z m63 -9 c-3 -9 -8 -14 -10 -11 -3 3 -2 9 2
15 9 16 15 13 8 -4z"/>
<path d="M6345 2791 c-3 -5 -1 -12 5 -16 5 -3 10 1 10 9 0 18 -6 21 -15 7z"/>
<path d="M6240 2350 c0 -5 5 -10 10 -10 6 0 10 5 10 10 0 6 -4 10 -10 10 -5 0
-10 -4 -10 -10z"/>
<path d="M2690 3379 c0 -5 5 -7 10 -4 6 3 10 8 10 11 0 2 -4 4 -10 4 -5 0 -10
-5 -10 -11z"/>
<path d="M1970 3359 c0 -11 5 -17 10 -14 6 3 10 13 10 21 0 8 -4 14 -10 14 -5
0 -10 -9 -10 -21z"/>
<path d="M5485 3360 c-3 -5 -1 -10 4 -10 6 0 11 5 11 10 0 6 -2 10 -4 10 -3 0
-8 -4 -11 -10z"/>
<path d="M6626 3361 c-3 -5 1 -11 9 -14 9 -4 12 -1 8 9 -6 16 -10 17 -17 5z"/>
<path d="M1925 3350 c4 -6 11 -8 16 -5 14 9 11 15 -7 15 -8 0 -12 -5 -9 -10z"/>
<path d="M6630 3311 c0 -5 5 -13 10 -16 6 -3 10 -2 10 4 0 5 -4 13 -10 16 -5
3 -10 2 -10 -4z"/>
<path d="M4750 3300 c0 -5 5 -10 10 -10 6 0 10 5 10 10 0 6 -4 10 -10 10 -5 0
-10 -4 -10 -10z"/>
<path d="M6333 3255 c0 -22 2 -30 4 -17 2 12 2 30 0 40 -3 9 -5 -1 -4 -23z"/>
<path d="M4455 3270 c-3 -5 1 -10 9 -10 9 0 16 5 16 10 0 6 -4 10 -9 10 -6 0
-13 -4 -16 -10z"/>
<path d="M5640 3263 c0 -13 5 -23 10 -23 13 0 13 11 0 30 -8 12 -10 11 -10 -7z"/>
<path d="M3960 3260 c0 -5 5 -10 11 -10 5 0 7 5 4 10 -3 6 -8 10 -11 10 -2 0
-4 -4 -4 -10z"/>
<path d="M4280 3250 c0 -5 5 -10 10 -10 6 0 10 5 10 10 0 6 -4 10 -10 10 -5 0
-10 -4 -10 -10z"/>
<path d="M6215 3240 c3 -5 8 -10 11 -10 2 0 4 5 4 10 0 6 -5 10 -11 10 -5 0
-7 -4 -4 -10z"/>
<path d="M6250 3240 c0 -5 7 -10 15 -10 8 0 15 5 15 10 0 6 -7 10 -15 10 -8 0
-15 -4 -15 -10z"/>
<path d="M3400 3224 c0 -8 5 -12 10 -9 6 3 10 10 10 16 0 5 -4 9 -10 9 -5 0
-10 -7 -10 -16z"/>
<path d="M1730 3220 c0 -5 5 -10 10 -10 6 0 10 5 10 10 0 6 -4 10 -10 10 -5 0
-10 -4 -10 -10z"/>
<path d="M5635 3200 c-3 -5 1 -13 10 -16 22 -9 29 1 11 15 -10 8 -16 9 -21 1z"/>
<path d="M2285 3189 c-10 -15 3 -25 16 -12 7 7 7 13 1 17 -6 3 -14 1 -17 -5z"/>
<path d="M5157 3183 c-4 -3 -7 -11 -7 -17 0 -6 5 -5 12 2 6 6 9 14 7 17 -3 3
-9 2 -12 -2z"/>
<path d="M6690 3087 c0 -25 4 -37 14 -37 12 0 13 7 6 31 -13 46 -20 48 -20 6z"/>
<path d="M2660 3080 c0 -5 5 -10 10 -10 6 0 10 5 10 10 0 6 -4 10 -10 10 -5 0
-10 -4 -10 -10z"/>
<path d="M4688 3083 c7 -3 16 -2 19 1 4 3 -2 6 -13 5 -11 0 -14 -3 -6 -6z"/>
<path d="M5945 3071 c-3 -5 -1 -12 5 -16 12 -7 30 2 30 16 0 12 -27 12 -35 0z"/>
<path d="M4160 3054 c0 -8 5 -12 10 -9 6 4 8 11 5 16 -9 14 -15 11 -15 -7z"/>
<path d="M5890 3060 c0 -5 5 -10 10 -10 6 0 10 5 10 10 0 6 -4 10 -10 10 -5 0
-10 -4 -10 -10z"/>
<path d="M6706 3025 c4 -8 10 -12 15 -9 11 6 2 24 -11 24 -5 0 -7 -7 -4 -15z"/>
<path d="M1757 2994 c-4 -4 -4 -10 -1 -15 6 -10 34 0 34 12 0 10 -24 12 -33 3z"/>
<path d="M3380 2974 c0 -8 5 -12 10 -9 6 4 8 11 5 16 -9 14 -15 11 -15 -7z"/>
<path d="M5100 2970 c0 -5 5 -10 10 -10 6 0 10 5 10 10 0 6 -4 10 -10 10 -5 0
-10 -4 -10 -10z"/>
<path d="M5585 2960 c3 -5 11 -10 16 -10 6 0 7 5 4 10 -3 6 -11 10 -16 10 -6
0 -7 -4 -4 -10z"/>
<path d="M1675 2950 c-3 -5 1 -10 9 -10 9 0 16 5 16 10 0 6 -4 10 -9 10 -6 0
-13 -4 -16 -10z"/>
<path d="M5728 2943 c7 -3 16 -2 19 1 4 3 -2 6 -13 5 -11 0 -14 -3 -6 -6z"/>
<path d="M6724 2909 c0 -21 3 -39 8 -39 4 0 8 -10 9 -22 1 -14 5 -7 10 17 7
27 6 41 -1 43 -5 2 -10 10 -10 17 0 8 -4 16 -8 19 -4 2 -8 -13 -8 -35z"/>
<path d="M6490 2930 c0 -5 5 -10 10 -10 6 0 10 5 10 10 0 6 -4 10 -10 10 -5 0
-10 -4 -10 -10z"/>
<path d="M5235 2920 c-3 -5 -1 -10 4 -10 6 0 11 5 11 10 0 6 -2 10 -4 10 -3 0
-8 -4 -11 -10z"/>
<path d="M1340 2911 c0 -10 30 -24 37 -17 3 3 2 9 -2 15 -8 13 -35 15 -35 2z"/>
<path d="M5983 2874 c-7 -19 0 -26 21 -18 20 8 21 20 1 28 -9 3 -18 -1 -22
-10z"/>
<path d="M6570 2880 c0 -5 5 -10 10 -10 6 0 10 5 10 10 0 6 -4 10 -10 10 -5 0
-10 -4 -10 -10z"/>
<path d="M3130 2830 c0 -5 5 -10 11 -10 5 0 7 5 4 10 -3 6 -8 10 -11 10 -2 0
-4 -4 -4 -10z"/>
<path d="M4580 2830 c0 -5 5 -10 10 -10 6 0 10 5 10 10 0 6 -4 10 -10 10 -5 0
-10 -4 -10 -10z"/>
<path d="M5440 2820 c0 -5 5 -10 11 -10 5 0 7 5 4 10 -3 6 -8 10 -11 10 -2 0
-4 -4 -4 -10z"/>
<path d="M1370 2799 c0 -5 5 -7 10 -4 6 3 10 8 10 11 0 2 -4 4 -10 4 -5 0 -10
-5 -10 -11z"/>
<path d="M1310 2760 c0 -5 5 -10 11 -10 5 0 7 5 4 10 -3 6 -8 10 -11 10 -2 0
-4 -4 -4 -10z"/>
<path d="M5970 2750 c0 -5 7 -10 15 -10 8 0 15 5 15 10 0 6 -7 10 -15 10 -8 0
-15 -4 -15 -10z"/>
<path d="M3380 2730 c0 -5 7 -10 15 -10 8 0 15 5 15 10 0 6 -7 10 -15 10 -8 0
-15 -4 -15 -10z"/>
<path d="M4635 2730 c-4 -6 3 -10 14 -10 25 0 27 6 6 13 -8 4 -17 2 -20 -3z"/>
<path d="M3210 2720 c0 -5 4 -10 9 -10 6 0 13 5 16 10 3 6 -1 10 -9 10 -9 0
-16 -4 -16 -10z"/>
<path d="M5170 2720 c0 -5 5 -10 10 -10 6 0 10 5 10 10 0 6 -4 10 -10 10 -5 0
-10 -4 -10 -10z"/>
<path d="M6000 2720 c0 -5 4 -10 9 -10 6 0 13 5 16 10 3 6 -1 10 -9 10 -9 0
-16 -4 -16 -10z"/>
<path d="M1287 2714 c-8 -8 1 -24 14 -24 5 0 9 7 9 15 0 15 -12 20 -23 9z"/>
<path d="M4420 2706 c0 -9 5 -16 10 -16 6 0 10 4 10 9 0 6 -4 13 -10 16 -5 3
-10 -1 -10 -9z"/>
<path d="M5760 2628 c0 -16 4 -28 9 -28 18 0 20 17 6 36 -14 18 -14 18 -15 -8z"/>
<path d="M5976 2635 c4 -8 8 -15 10 -15 2 0 4 7 4 15 0 8 -4 15 -10 15 -5 0
-7 -7 -4 -15z"/>
<path d="M2675 2630 c-3 -5 -1 -10 4 -10 6 0 11 5 11 10 0 6 -2 10 -4 10 -3 0
-8 -4 -11 -10z"/>
<path d="M5996 2605 c-3 -8 -1 -15 4 -15 6 0 10 -4 10 -10 0 -5 -7 -10 -15
-10 -8 0 -15 -4 -15 -10 0 -13 11 -12 33 4 21 16 21 23 3 41 -12 12 -15 12
-20 0z"/>
<path d="M4840 2600 c0 -5 5 -10 11 -10 5 0 7 5 4 10 -3 6 -8 10 -11 10 -2 0
-4 -4 -4 -10z"/>
<path d="M5960 2596 c0 -9 5 -16 10 -16 6 0 10 4 10 9 0 6 -4 13 -10 16 -5 3
-10 -1 -10 -9z"/>
<path d="M1600 2580 c0 -5 5 -10 10 -10 6 0 10 5 10 10 0 6 -4 10 -10 10 -5 0
-10 -4 -10 -10z"/>
<path d="M2730 2580 c0 -5 5 -10 10 -10 6 0 10 5 10 10 0 6 -4 10 -10 10 -5 0
-10 -4 -10 -10z"/>
<path d="M1356 2562 c-3 -5 1 -15 9 -22 21 -17 27 -9 10 13 -7 10 -16 14 -19
9z"/>
<path d="M5190 2560 c0 -5 5 -10 10 -10 6 0 10 5 10 10 0 6 -4 10 -10 10 -5 0
-10 -4 -10 -10z"/>
<path d="M5870 2525 c0 -9 5 -15 11 -13 6 2 11 8 11 13 0 5 -5 11 -11 13 -6 2
-11 -4 -11 -13z"/>
<path d="M5810 2500 c0 -5 7 -10 16 -10 8 0 12 5 9 10 -3 6 -10 10 -16 10 -5
0 -9 -4 -9 -10z"/>
<path d="M2625 2481 c-10 -17 11 -21 31 -6 18 14 18 14 -3 15 -12 0 -24 -4
-28 -9z"/>
<path d="M1310 2470 c0 -12 40 -34 48 -26 3 3 0 6 -6 6 -7 0 -12 7 -12 15 0 8
-7 15 -15 15 -8 0 -15 -4 -15 -10z"/>
<path d="M1660 2470 c0 -5 5 -10 10 -10 6 0 10 5 10 10 0 6 -4 10 -10 10 -5 0
-10 -4 -10 -10z"/>
<path d="M3215 2471 c-3 -5 -1 -12 5 -16 5 -3 10 1 10 9 0 18 -6 21 -15 7z"/>
<path d="M3400 2449 c0 -5 5 -7 10 -4 6 3 10 8 10 11 0 2 -4 4 -10 4 -5 0 -10
-5 -10 -11z"/>
<path d="M3025 2441 c-3 -5 -1 -12 5 -16 5 -3 10 1 10 9 0 18 -6 21 -15 7z"/>
<path d="M3550 2430 c0 -5 5 -10 10 -10 6 0 10 5 10 10 0 6 -4 10 -10 10 -5 0
-10 -4 -10 -10z"/>
<path d="M1200 2420 c0 -5 5 -10 10 -10 6 0 10 5 10 10 0 6 -4 10 -10 10 -5 0
-10 -4 -10 -10z"/>
<path d="M3840 2390 c0 -5 5 -10 10 -10 6 0 10 5 10 10 0 6 -4 10 -10 10 -5 0
-10 -4 -10 -10z"/>
<path d="M3116 2371 c-4 -5 -2 -12 3 -15 5 -4 12 -2 15 3 4 5 2 12 -3 15 -5 4
-12 2 -15 -3z"/>
<path d="M3265 2370 c-3 -5 1 -10 9 -10 9 0 16 5 16 10 0 6 -4 10 -9 10 -6 0
-13 -4 -16 -10z"/>
<path d="M5480 2372 c0 -5 7 -16 16 -23 14 -12 16 -11 13 5 -4 20 -29 35 -29
18z"/>
<path d="M2215 2340 c3 -5 8 -10 11 -10 2 0 4 5 4 10 0 6 -5 10 -11 10 -5 0
-7 -4 -4 -10z"/>
<path d="M6870 2341 c0 -6 5 -13 10 -16 6 -3 10 1 10 9 0 9 -4 16 -10 16 -5 0
-10 -4 -10 -9z"/>
<path d="M1560 2330 c0 -5 5 -10 11 -10 5 0 7 5 4 10 -3 6 -8 10 -11 10 -2 0
-4 -4 -4 -10z"/>
<path d="M4245 2310 c-3 -5 1 -10 10 -10 9 0 13 5 10 10 -3 6 -8 10 -10 10 -2
0 -7 -4 -10 -10z"/>
<path d="M1600 2296 c0 -2 7 -6 15 -10 8 -3 15 -1 15 4 0 6 -7 10 -15 10 -8 0
-15 -2 -15 -4z"/>
<path d="M1190 2280 c0 -5 5 -10 10 -10 6 0 10 5 10 10 0 6 -4 10 -10 10 -5 0
-10 -4 -10 -10z"/>
<path d="M1665 2281 c-3 -5 -1 -12 5 -16 5 -3 10 1 10 9 0 18 -6 21 -15 7z"/>
<path d="M6965 2261 c-3 -5 -1 -12 5 -16 5 -3 10 1 10 9 0 18 -6 21 -15 7z"/>
<path d="M3520 2239 c0 -5 5 -7 10 -4 6 3 10 8 10 11 0 2 -4 4 -10 4 -5 0 -10
-5 -10 -11z"/>
<path d="M1680 2210 c0 -5 5 -10 10 -10 6 0 10 5 10 10 0 6 -4 10 -10 10 -5 0
-10 -4 -10 -10z"/>
<path d="M2995 2210 c3 -5 8 -10 11 -10 2 0 4 5 4 10 0 6 -5 10 -11 10 -5 0
-7 -4 -4 -10z"/>
<path d="M3200 2190 c0 -5 5 -10 11 -10 5 0 7 5 4 10 -3 6 -8 10 -11 10 -2 0
-4 -4 -4 -10z"/>
<path d="M1650 2170 c0 -5 5 -10 10 -10 6 0 10 5 10 10 0 6 -4 10 -10 10 -5 0
-10 -4 -10 -10z"/>
<path d="M2485 2150 c-3 -5 -1 -10 4 -10 6 0 11 5 11 10 0 6 -2 10 -4 10 -3 0
-8 -4 -11 -10z"/>
<path d="M5020 2150 c-13 -8 -12 -10 3 -10 9 0 17 5 17 10 0 12 -1 12 -20 0z"/>
<path d="M5715 2150 c3 -5 10 -10 16 -10 5 0 9 5 9 10 0 6 -7 10 -16 10 -8 0
-12 -4 -9 -10z"/>
<path d="M6960 2140 c0 -5 5 -10 10 -10 6 0 10 5 10 10 0 6 -4 10 -10 10 -5 0
-10 -4 -10 -10z"/>
<path d="M1210 2114 c0 -17 22 -14 28 4 2 7 -3 12 -12 12 -9 0 -16 -7 -16 -16z"/>
<path d="M1720 2114 c0 -9 5 -14 12 -12 18 6 21 28 4 28 -9 0 -16 -7 -16 -16z"/>
<path d="M3528 2123 c7 -3 16 -2 19 1 4 3 -2 6 -13 5 -11 0 -14 -3 -6 -6z"/>
<path d="M2726 2111 c-4 -7 -5 -15 -2 -18 9 -9 19 4 14 18 -4 11 -6 11 -12 0z"/>
<path d="M1386 2089 c-12 -11 -15 -19 -7 -19 13 0 41 24 41 34 0 11 -15 5 -34
-15z"/>
<path d="M3610 2100 c0 -5 5 -10 10 -10 6 0 10 5 10 10 0 6 -4 10 -10 10 -5 0
-10 -4 -10 -10z"/>
<path d="M3220 2090 c0 -5 5 -10 10 -10 6 0 10 5 10 10 0 6 -4 10 -10 10 -5 0
-10 -4 -10 -10z"/>
<path d="M3360 2086 c0 -8 -6 -16 -12 -19 -7 -2 -9 -8 -5 -13 5 -5 15 -1 23
10 16 23 18 36 4 36 -5 0 -10 -6 -10 -14z"/>
<path d="M1700 2056 c0 -9 5 -16 10 -16 6 0 10 4 10 9 0 6 -4 13 -10 16 -5 3
-10 -1 -10 -9z"/>
<path d="M2480 2060 c0 -5 5 -10 10 -10 6 0 10 5 10 10 0 6 -4 10 -10 10 -5 0
-10 -4 -10 -10z"/>
<path d="M3530 2000 c0 -5 7 -10 16 -10 8 0 12 5 9 10 -3 6 -10 10 -16 10 -5
0 -9 -4 -9 -10z"/>
<path d="M1100 1990 c0 -5 5 -10 10 -10 6 0 10 5 10 10 0 6 -4 10 -10 10 -5 0
-10 -4 -10 -10z"/>
<path d="M1706 1993 c-12 -12 -6 -21 19 -25 14 -3 25 -1 25 3 0 5 1 12 3 16 3
8 -39 14 -47 6z"/>
<path d="M4205 1990 c3 -5 8 -10 11 -10 2 0 4 5 4 10 0 6 -5 10 -11 10 -5 0
-7 -4 -4 -10z"/>
<path d="M5816 1971 c-3 -5 1 -11 9 -15 9 -3 15 0 15 9 0 16 -16 20 -24 6z"/>
<path d="M1758 1948 c-10 -29 -8 -101 3 -115 7 -8 13 -44 14 -79 2 -69 16 -97
37 -76 7 7 23 11 38 11 16 -1 19 -3 8 -6 -10 -2 -18 -9 -18 -14 0 -5 -11 -14
-25 -19 -26 -10 -32 -24 -15 -35 6 -3 13 1 16 9 3 9 13 16 21 16 19 0 9 -49
-14 -67 -8 -6 -12 -16 -9 -21 10 -16 -18 -32 -79 -44 -45 -9 -60 -9 -63 0 -5
15 -32 16 -32 2 0 -16 -83 -12 -230 11 -74 11 -153 22 -175 25 -22 3 -71 12
-110 20 -109 24 -135 27 -135 15 0 -6 7 -11 15 -11 21 0 19 -18 -2 -23 -13 -3
-12 -5 5 -6 22 -1 22 -2 7 -17 -9 -9 -14 -22 -11 -29 2 -7 -3 -12 -12 -11 -11
1 -18 -11 -24 -39 -12 -56 -28 -116 -39 -142 -6 -16 -5 -23 4 -24 6 0 2 -5
-11 -11 -16 -8 -23 -19 -22 -37 1 -14 1 -30 0 -36 -2 -5 -4 -14 -5 -20 -1 -5
-4 -17 -8 -25 -3 -8 -8 -37 -11 -63 -3 -27 -13 -58 -21 -70 -8 -12 -15 -29
-15 -39 0 -10 -4 -18 -8 -18 -10 0 -10 -46 0 -55 4 -4 2 -19 -3 -33 -6 -15 -9
-57 -8 -95 2 -47 -2 -71 -10 -77 -7 -4 -9 -10 -4 -13 12 -7 5 -142 -7 -142 -1
0 -3 -29 -5 -65 -2 -36 -13 -103 -24 -149 -13 -56 -18 -111 -16 -165 1 -45 -1
-88 -5 -96 -5 -8 -6 -28 -3 -43 l5 -27 445 0 444 0 -4 218 c-2 119 -10 298
-17 397 -12 159 -11 189 2 255 17 79 64 198 75 187 3 -4 1 -13 -6 -20 -8 -11
-8 -22 4 -48 8 -19 14 -28 15 -21 0 7 4 11 10 7 5 -3 6 -13 3 -23 -6 -16 -5
-16 13 0 18 16 19 15 19 -20 0 -20 -4 -43 -8 -49 -6 -9 -3 -11 7 -7 9 3 16 11
16 16 0 27 28 -17 34 -51 3 -22 10 -41 14 -43 4 -1 18 -28 29 -58 18 -45 22
-50 22 -27 1 17 5 26 11 22 6 -4 8 -22 4 -43 -11 -64 11 -22 36 68 13 47 28
88 34 92 7 5 7 8 -2 8 -8 0 -9 5 -3 18 15 27 24 55 27 81 2 12 10 56 18 96 26
128 31 244 11 290 -46 109 -65 199 -68 323 -3 119 -4 123 -30 148 -15 14 -27
29 -27 35 0 6 -10 31 -21 57 -21 45 -22 46 -31 23 -7 -21 -10 -22 -21 -10 -25
30 -44 41 -49 27z m79 -1125 c-3 -10 -5 -4 -5 12 0 17 2 24 5 18 2 -7 2 -21 0
-30z m33 -63 c0 -5 -4 -10 -10 -10 -5 0 -10 5 -10 10 0 6 5 10 10 10 6 0 10
-4 10 -10z"/>
<path d="M3640 1950 c0 -5 7 -10 16 -10 8 0 12 5 9 10 -3 6 -10 10 -16 10 -5
0 -9 -4 -9 -10z"/>
<path d="M3978 1943 c7 -3 16 -2 19 1 4 3 -2 6 -13 5 -11 0 -14 -3 -6 -6z"/>
<path d="M5160 1935 c-10 -12 -10 -15 3 -15 8 0 20 7 27 15 10 12 10 15 -3 15
-8 0 -20 -7 -27 -15z"/>
<path d="M1715 1930 c4 -6 11 -8 16 -5 14 9 11 15 -7 15 -8 0 -12 -5 -9 -10z"/>
<path d="M5045 1930 c4 -6 11 -8 16 -5 14 9 11 15 -7 15 -8 0 -12 -5 -9 -10z"/>
<path d="M5305 1920 c3 -5 11 -10 16 -10 6 0 7 5 4 10 -3 6 -11 10 -16 10 -6
0 -7 -4 -4 -10z"/>
<path d="M3110 1910 c0 -5 5 -10 10 -10 6 0 10 5 10 10 0 6 -4 10 -10 10 -5 0
-10 -4 -10 -10z"/>
<path d="M3390 1911 c0 -18 18 -21 30 -6 10 13 9 15 -9 15 -11 0 -21 -4 -21
-9z"/>
<path d="M5420 1875 c0 -8 5 -15 10 -15 6 0 10 7 10 15 0 8 -4 15 -10 15 -5 0
-10 -7 -10 -15z"/>
<path d="M3640 1870 c0 -5 5 -10 10 -10 6 0 10 5 10 10 0 6 -4 10 -10 10 -5 0
-10 -4 -10 -10z"/>
<path d="M1100 1841 c0 -11 26 -22 34 -14 3 3 3 10 0 14 -7 12 -34 11 -34 0z"/>
<path d="M2795 1830 c3 -5 11 -10 16 -10 6 0 7 5 4 10 -3 6 -11 10 -16 10 -6
0 -7 -4 -4 -10z"/>
<path d="M2873 1825 c-17 -19 -16 -35 2 -35 9 0 15 9 15 25 0 29 -1 29 -17 10z"/>
<path d="M3300 1829 c0 -5 5 -7 10 -4 6 3 10 8 10 11 0 2 -4 4 -10 4 -5 0 -10
-5 -10 -11z"/>
<path d="M1630 1819 c0 -5 5 -7 10 -4 6 3 10 8 10 11 0 2 -4 4 -10 4 -5 0 -10
-5 -10 -11z"/>
<path d="M1585 1810 c3 -5 8 -10 11 -10 2 0 4 5 4 10 0 6 -5 10 -11 10 -5 0
-7 -4 -4 -10z"/>
<path d="M3507 1804 c-4 -4 -4 -10 -1 -15 6 -10 34 0 34 12 0 10 -24 12 -33 3z"/>
<path d="M5110 1800 c0 -5 7 -10 15 -10 8 0 15 5 15 10 0 6 -7 10 -15 10 -8 0
-15 -4 -15 -10z"/>
<path d="M5680 1789 c0 -5 5 -7 10 -4 6 3 10 8 10 11 0 2 -4 4 -10 4 -5 0 -10
-5 -10 -11z"/>
<path d="M6980 1770 c0 -5 5 -10 11 -10 5 0 7 5 4 10 -3 6 -8 10 -11 10 -2 0
-4 -4 -4 -10z"/>
<path d="M2445 1760 c3 -5 8 -10 11 -10 2 0 4 5 4 10 0 6 -5 10 -11 10 -5 0
-7 -4 -4 -10z"/>
<path d="M2975 1760 c-3 -5 1 -10 9 -10 9 0 16 5 16 10 0 6 -4 10 -9 10 -6 0
-13 -4 -16 -10z"/>
<path d="M3080 1745 c0 -17 9 -19 28 -6 11 7 10 10 -3 15 -23 9 -25 8 -25 -9z"/>
<path d="M3535 1750 c-3 -5 -1 -10 4 -10 6 0 11 5 11 10 0 6 -2 10 -4 10 -3 0
-8 -4 -11 -10z"/>
<path d="M3445 1740 c4 -6 11 -8 16 -5 14 9 11 15 -7 15 -8 0 -12 -5 -9 -10z"/>
<path d="M6861 1704 c0 -11 3 -14 6 -6 3 7 2 16 -1 19 -3 4 -6 -2 -5 -13z"/>
<path d="M3280 1680 c0 -5 7 -7 15 -4 8 4 15 8 15 10 0 2 -7 4 -15 4 -8 0 -15
-4 -15 -10z"/>
<path d="M1130 1670 c-13 -8 -12 -10 3 -10 9 0 17 5 17 10 0 12 -1 12 -20 0z"/>
<path d="M1495 1670 c-3 -5 -1 -10 4 -10 6 0 11 5 11 10 0 6 -2 10 -4 10 -3 0
-8 -4 -11 -10z"/>
<path d="M2847 1673 c-9 -2 -15 -9 -11 -14 3 -6 12 -5 22 3 12 10 16 10 19 1
3 -7 9 -13 15 -13 6 0 6 6 -2 15 -7 8 -15 14 -19 14 -3 -1 -14 -3 -24 -6z"/>
<path d="M3920 1650 c0 -5 7 -10 15 -10 8 0 15 5 15 10 0 6 -7 10 -15 10 -8 0
-15 -4 -15 -10z"/>
<path d="M1390 1630 c0 -5 5 -10 10 -10 6 0 10 5 10 10 0 6 -4 10 -10 10 -5 0
-10 -4 -10 -10z"/>
<path d="M1720 1630 c0 -5 7 -10 15 -10 8 0 15 5 15 10 0 6 -7 10 -15 10 -8 0
-15 -4 -15 -10z"/>
<path d="M2910 1620 c0 -5 5 -10 10 -10 6 0 10 5 10 10 0 6 -4 10 -10 10 -5 0
-10 -4 -10 -10z"/>
<path d="M6080 1620 c0 -5 7 -10 16 -10 8 0 12 5 9 10 -3 6 -10 10 -16 10 -5
0 -9 -4 -9 -10z"/>
<path d="M3155 1601 c-3 -5 -1 -12 4 -15 13 -8 42 4 35 15 -7 12 -31 12 -39 0z"/>
<path d="M3445 1600 c3 -5 14 -10 23 -10 15 0 15 2 2 10 -20 13 -33 13 -25 0z"/>
<path d="M5551 1581 c-10 -7 -10 -10 -1 -16 6 -4 16 -3 22 3 13 13 -4 23 -21
13z"/>
<path d="M5285 1570 c4 -6 11 -8 16 -5 14 9 11 15 -7 15 -8 0 -12 -5 -9 -10z"/>
<path d="M6386 1571 c-4 -7 -5 -15 -2 -18 9 -9 19 4 14 18 -4 11 -6 11 -12 0z"/>
<path d="M4890 1560 c0 -5 5 -10 10 -10 6 0 10 5 10 10 0 6 -4 10 -10 10 -5 0
-10 -4 -10 -10z"/>
<path d="M6160 1546 c0 -9 5 -16 10 -16 6 0 10 4 10 9 0 6 -4 13 -10 16 -5 3
-10 -1 -10 -9z"/>
<path d="M6260 1550 c0 -5 5 -10 10 -10 6 0 10 5 10 10 0 6 -4 10 -10 10 -5 0
-10 -4 -10 -10z"/>
<path d="M2720 1480 c0 -5 5 -10 10 -10 6 0 10 5 10 10 0 6 -4 10 -10 10 -5 0
-10 -4 -10 -10z"/>
<path d="M3185 1480 c-3 -5 1 -10 9 -10 9 0 16 5 16 10 0 6 -4 10 -9 10 -6 0
-13 -4 -16 -10z"/>
<path d="M3320 1474 c0 -14 3 -14 15 -4 8 7 15 14 15 16 0 2 -7 4 -15 4 -8 0
-15 -7 -15 -16z"/>
<path d="M3775 1470 c3 -5 8 -10 11 -10 2 0 4 5 4 10 0 6 -5 10 -11 10 -5 0
-7 -4 -4 -10z"/>
<path d="M5282 1460 c-15 -24 -15 -33 -1 -28 6 2 9 7 7 10 -2 4 6 14 17 22 15
12 16 15 5 16 -8 0 -21 -9 -28 -20z"/>
<path d="M4610 1449 c0 -5 5 -7 10 -4 6 3 10 8 10 11 0 2 -4 4 -10 4 -5 0 -10
-5 -10 -11z"/>
<path d="M5660 1450 c0 -5 5 -10 11 -10 5 0 7 5 4 10 -3 6 -8 10 -11 10 -2 0
-4 -4 -4 -10z"/>
<path d="M6162 1448 c2 -6 10 -14 16 -16 7 -2 10 2 6 12 -7 18 -28 22 -22 4z"/>
<path d="M2840 1390 c0 -5 7 -10 15 -10 8 0 15 5 15 10 0 6 -7 10 -15 10 -8 0
-15 -4 -15 -10z"/>
<path d="M4080 1389 c0 -5 5 -7 10 -4 6 3 10 8 10 11 0 2 -4 4 -10 4 -5 0 -10
-5 -10 -11z"/>
<path d="M3440 1380 c0 -5 5 -10 10 -10 6 0 10 5 10 10 0 6 -4 10 -10 10 -5 0
-10 -4 -10 -10z"/>
<path d="M3170 1359 c0 -5 5 -7 10 -4 6 3 10 8 10 11 0 2 -4 4 -10 4 -5 0 -10
-5 -10 -11z"/>
<path d="M5136 1341 c-4 -5 -2 -12 3 -15 5 -4 12 -2 15 3 4 5 2 12 -3 15 -5 4
-12 2 -15 -3z"/>
<path d="M4320 1324 c0 -8 5 -12 10 -9 6 4 8 11 5 16 -9 14 -15 11 -15 -7z"/>
<path d="M4800 1330 c0 -5 5 -10 10 -10 6 0 10 5 10 10 0 6 -4 10 -10 10 -5 0
-10 -4 -10 -10z"/>
<path d="M5230 1314 c0 -8 5 -12 10 -9 6 3 10 10 10 16 0 5 -4 9 -10 9 -5 0
-10 -7 -10 -16z"/>
<path d="M3830 1310 c0 -5 5 -10 10 -10 6 0 10 5 10 10 0 6 -4 10 -10 10 -5 0
-10 -4 -10 -10z"/>
<path d="M5260 1274 c0 -19 5 -34 10 -34 6 0 10 9 10 20 0 11 7 20 15 20 8 0
15 6 15 14 0 8 -10 14 -25 14 -22 0 -25 -5 -25 -34z"/>
<path d="M4500 1289 c0 -5 5 -7 10 -4 6 3 10 8 10 11 0 2 -4 4 -10 4 -5 0 -10
-5 -10 -11z"/>
<path d="M3231 1271 c-9 -6 -10 -11 -2 -15 13 -8 31 1 31 15 0 11 -11 11 -29
0z"/>
<path d="M5690 1235 c0 -8 5 -15 10 -15 6 0 10 7 10 15 0 8 -4 15 -10 15 -5 0
-10 -7 -10 -15z"/>
<path d="M3290 1224 c0 -8 -4 -12 -10 -9 -5 3 -10 1 -10 -4 0 -14 13 -14 28 1
15 15 16 28 2 28 -5 0 -10 -7 -10 -16z"/>
<path d="M5600 1226 c0 -9 5 -16 10 -16 6 0 10 4 10 9 0 6 -4 13 -10 16 -5 3
-10 -1 -10 -9z"/>
<path d="M5222 1211 c-10 -6 -10 -10 2 -21 9 -7 13 -17 9 -23 -3 -6 -1 -7 5
-3 13 8 17 56 5 56 -5 0 -14 -4 -21 -9z"/>
<path d="M5487 1203 c-12 -11 -8 -23 8 -23 8 0 15 7 15 15 0 16 -12 20 -23 8z"/>
<path d="M4920 1186 c0 -9 7 -16 16 -16 17 0 14 22 -4 28 -7 2 -12 -3 -12 -12z"/>
<path d="M2755 1150 c-3 -5 3 -10 14 -10 11 0 23 5 26 10 3 6 -3 10 -14 10
-11 0 -23 -4 -26 -10z"/>
<path d="M3120 1140 c0 -5 5 -10 10 -10 6 0 10 5 10 10 0 6 -4 10 -10 10 -5 0
-10 -4 -10 -10z"/>
<path d="M5245 1140 c3 -5 10 -10 16 -10 5 0 9 5 9 10 0 6 -7 10 -16 10 -8 0
-12 -4 -9 -10z"/>
<path d="M5680 1124 c0 -8 5 -12 10 -9 6 3 10 10 10 16 0 5 -4 9 -10 9 -5 0
-10 -7 -10 -16z"/>
<path d="M2775 1110 c4 -6 11 -8 16 -5 14 9 11 15 -7 15 -8 0 -12 -5 -9 -10z"/>
<path d="M3865 1110 c-3 -5 -1 -10 4 -10 6 0 11 5 11 10 0 6 -2 10 -4 10 -3 0
-8 -4 -11 -10z"/>
<path d="M3975 1110 c-8 -13 15 -24 27 -12 6 6 4 11 -6 15 -8 3 -18 2 -21 -3z"/>
<path d="M5435 1110 c-3 -5 1 -10 9 -10 9 0 16 5 16 10 0 6 -4 10 -9 10 -6 0
-13 -4 -16 -10z"/>
<path d="M5345 1090 c-3 -5 1 -10 10 -10 9 0 13 5 10 10 -3 6 -8 10 -10 10 -2
0 -7 -4 -10 -10z"/>
<path d="M5685 1090 c3 -5 10 -10 16 -10 5 0 9 5 9 10 0 6 -7 10 -16 10 -8 0
-12 -4 -9 -10z"/>
<path d="M3840 1060 c0 -5 5 -10 11 -10 5 0 7 5 4 10 -3 6 -8 10 -11 10 -2 0
-4 -4 -4 -10z"/>
<path d="M4680 1060 c0 -5 7 -10 15 -10 8 0 15 5 15 10 0 6 -7 10 -15 10 -8 0
-15 -4 -15 -10z"/>
<path d="M2550 1050 c0 -5 5 -10 10 -10 6 0 10 5 10 10 0 6 -4 10 -10 10 -5 0
-10 -4 -10 -10z"/>
<path d="M2726 1031 c-4 -5 -2 -12 3 -15 5 -4 12 -2 15 3 4 5 2 12 -3 15 -5 4
-12 2 -15 -3z"/>
<path d="M3250 1030 c0 -5 6 -10 14 -10 8 0 18 5 21 10 3 6 -3 10 -14 10 -12
0 -21 -4 -21 -10z"/>
<path d="M3177 1024 c-12 -12 -8 -23 11 -33 15 -8 18 -6 17 11 -2 23 -16 34
-28 22z"/>
<path d="M3060 999 c0 -5 5 -7 10 -4 6 3 10 8 10 11 0 2 -4 4 -10 4 -5 0 -10
-5 -10 -11z"/>
<path d="M2630 950 c0 -5 5 -10 10 -10 6 0 10 5 10 10 0 6 -4 10 -10 10 -5 0
-10 -4 -10 -10z"/>
<path d="M3155 949 c-4 -6 -5 -13 -2 -16 7 -7 27 6 27 18 0 12 -17 12 -25 -2z"/>
<path d="M1720 916 c0 -8 5 -18 10 -21 6 -3 10 1 10 9 0 8 -4 18 -10 21 -5 3
-10 -1 -10 -9z"/>
<path d="M3005 870 c-3 -5 1 -10 9 -10 9 0 16 5 16 10 0 6 -4 10 -9 10 -6 0
-13 -4 -16 -10z"/>
<path d="M5425 870 c4 -6 11 -8 16 -5 14 9 11 15 -7 15 -8 0 -12 -5 -9 -10z"/>
<path d="M5202 858 c3 -7 12 -14 21 -16 12 -2 15 1 11 12 -7 19 -38 22 -32 4z"/>
<path d="M5315 850 c4 -6 11 -8 16 -5 14 9 11 15 -7 15 -8 0 -12 -5 -9 -10z"/>
<path d="M5564 834 c3 -9 6 -20 6 -25 0 -5 4 -9 9 -9 4 0 6 11 3 25 -2 14 -9
25 -14 25 -6 0 -7 -7 -4 -16z"/>
<path d="M4160 830 c0 -5 5 -10 10 -10 6 0 10 5 10 10 0 6 -4 10 -10 10 -5 0
-10 -4 -10 -10z"/>
<path d="M5230 800 c-13 -8 -12 -10 3 -10 9 0 17 5 17 10 0 12 -1 12 -20 0z"/>
<path d="M5535 800 c-3 -5 -1 -10 4 -10 6 0 11 5 11 10 0 6 -2 10 -4 10 -3 0
-8 -4 -11 -10z"/>
<path d="M4775 790 c3 -5 10 -10 16 -10 5 0 9 5 9 10 0 6 -7 10 -16 10 -8 0
-12 -4 -9 -10z"/>
<path d="M3200 770 c0 -5 4 -10 9 -10 6 0 13 5 16 10 3 6 -1 10 -9 10 -9 0
-16 -4 -16 -10z"/>
<path d="M5510 771 c0 -6 5 -13 10 -16 6 -3 10 1 10 9 0 9 -4 16 -10 16 -5 0
-10 -4 -10 -9z"/>
<path d="M3540 760 c0 -5 5 -10 10 -10 6 0 10 5 10 10 0 6 -4 10 -10 10 -5 0
-10 -4 -10 -10z"/>
<path d="M3811 754 c0 -11 3 -14 6 -6 3 7 2 16 -1 19 -3 4 -6 -2 -5 -13z"/>
<path d="M5557 764 c-11 -11 -9 -19 13 -42 12 -12 16 -23 10 -27 -6 -3 -10 -1
-10 4 0 6 -7 11 -15 11 -9 0 -15 -9 -15 -25 0 -26 15 -34 23 -12 3 6 5 -6 4
-28 -1 -22 3 -40 8 -40 6 0 10 9 10 20 1 11 4 35 9 53 6 25 3 40 -11 62 -11
17 -22 27 -26 24z"/>
<path d="M2640 750 c0 -5 5 -10 10 -10 6 0 10 5 10 10 0 6 -4 10 -10 10 -5 0
-10 -4 -10 -10z"/>
<path d="M5650 720 c0 -11 5 -20 10 -20 6 0 10 9 10 20 0 11 -4 20 -10 20 -5
0 -10 -9 -10 -20z"/>
<path d="M3510 709 c0 -5 5 -7 10 -4 6 3 10 8 10 11 0 2 -4 4 -10 4 -5 0 -10
-5 -10 -11z"/>
<path d="M4090 711 c0 -5 5 -13 10 -16 6 -3 10 -2 10 4 0 5 -4 13 -10 16 -5 3
-10 2 -10 -4z"/>
<path d="M5721 704 c0 -11 3 -14 6 -6 3 7 2 16 -1 19 -3 4 -6 -2 -5 -13z"/>
<path d="M3730 690 c0 -5 5 -10 10 -10 6 0 10 5 10 10 0 6 -4 10 -10 10 -5 0
-10 -4 -10 -10z"/>
<path d="M4140 680 c0 -5 6 -10 14 -10 8 0 18 5 21 10 3 6 -3 10 -14 10 -12 0
-21 -4 -21 -10z"/>
<path d="M5495 680 c-8 -13 4 -32 16 -25 12 8 12 35 0 35 -6 0 -13 -4 -16 -10z"/>
<path d="M5175 669 c-4 -6 -5 -13 -2 -16 7 -7 27 6 27 18 0 12 -17 12 -25 -2z"/>
<path d="M5608 674 c-5 -4 -8 -23 -8 -43 0 -25 3 -32 11 -24 6 6 9 25 7 43 -2
17 -6 28 -10 24z"/>
<path d="M5707 666 c-3 -8 1 -20 9 -26 11 -10 14 -9 14 8 0 25 -16 37 -23 18z"/>
<path d="M1861 654 c0 -11 3 -14 6 -6 3 7 2 16 -1 19 -3 4 -6 -2 -5 -13z"/>
<path d="M4726 662 c-3 -6 -1 -14 5 -17 15 -10 25 3 12 16 -7 7 -13 7 -17 1z"/>
<path d="M2670 650 c0 -5 5 -10 10 -10 6 0 10 5 10 10 0 6 -4 10 -10 10 -5 0
-10 -4 -10 -10z"/>
<path d="M5541 584 c0 -11 3 -14 6 -6 3 7 2 16 -1 19 -3 4 -6 -2 -5 -13z"/>
<path d="M4490 580 c0 -5 7 -10 15 -10 8 0 15 5 15 10 0 6 -7 10 -15 10 -8 0
-15 -4 -15 -10z"/>
<path d="M5610 563 c0 -13 5 -23 10 -23 13 0 13 11 0 30 -8 12 -10 11 -10 -7z"/>
<path d="M2750 549 c0 -5 5 -7 10 -4 6 3 10 8 10 11 0 2 -4 4 -10 4 -5 0 -10
-5 -10 -11z"/>
<path d="M5575 550 c-4 -6 -3 -16 3 -22 13 -13 23 4 13 21 -7 10 -10 10 -16 1z"/>
<path d="M3590 536 c0 -9 5 -16 10 -16 6 0 10 4 10 9 0 6 -4 13 -10 16 -5 3
-10 -1 -10 -9z"/>
<path d="M5537 537 c-3 -8 -2 -19 3 -26 5 -10 9 -8 14 4 3 9 6 21 6 26 0 14
-17 11 -23 -4z"/>
<path d="M5180 510 c-11 -7 -12 -12 -3 -21 15 -15 43 -5 43 16 0 17 -18 19
-40 5z"/>
<path d="M4770 490 c0 -5 7 -10 15 -10 8 0 15 5 15 10 0 6 -7 10 -15 10 -8 0
-15 -4 -15 -10z"/>
<path d="M4825 491 c-7 -12 12 -24 25 -16 11 7 4 25 -10 25 -5 0 -11 -4 -15
-9z"/>
<path d="M2560 470 c0 -5 5 -10 11 -10 5 0 7 5 4 10 -3 6 -8 10 -11 10 -2 0
-4 -4 -4 -10z"/>
<path d="M2985 471 c-3 -5 -1 -12 5 -16 5 -3 10 1 10 9 0 18 -6 21 -15 7z"/>
<path d="M4690 469 c0 -5 5 -7 10 -4 6 3 10 8 10 11 0 2 -4 4 -10 4 -5 0 -10
-5 -10 -11z"/>
<path d="M5530 473 c0 -5 5 -15 10 -23 8 -12 10 -11 10 8 0 12 -4 22 -10 22
-5 0 -10 -3 -10 -7z"/>
<path d="M5658 473 c7 -3 16 -2 19 1 4 3 -2 6 -13 5 -11 0 -14 -3 -6 -6z"/>
<path d="M5040 460 c0 -5 5 -10 10 -10 6 0 10 5 10 10 0 6 -4 10 -10 10 -5 0
-10 -4 -10 -10z"/>
<path d="M5190 450 c0 -11 5 -20 10 -20 6 0 10 9 10 20 0 11 -4 20 -10 20 -5
0 -10 -9 -10 -20z"/>
<path d="M4795 450 c-3 -5 -1 -10 4 -10 6 0 11 5 11 10 0 6 -2 10 -4 10 -3 0
-8 -4 -11 -10z"/>
<path d="M5570 450 c0 -5 5 -10 10 -10 6 0 10 5 10 10 0 6 -4 10 -10 10 -5 0
-10 -4 -10 -10z"/>
<path d="M4300 440 c0 -5 5 -10 10 -10 6 0 10 5 10 10 0 6 -4 10 -10 10 -5 0
-10 -4 -10 -10z"/>
<path d="M3110 420 c0 -5 5 -10 10 -10 6 0 10 5 10 10 0 6 -4 10 -10 10 -5 0
-10 -4 -10 -10z"/>
<path d="M4650 410 c0 -5 5 -10 10 -10 6 0 10 5 10 10 0 6 -4 10 -10 10 -5 0
-10 -4 -10 -10z"/>
<path d="M5230 404 c0 -8 5 -12 10 -9 6 3 10 10 10 16 0 5 -4 9 -10 9 -5 0
-10 -7 -10 -16z"/>
<path d="M5450 412 c0 -12 23 -32 37 -32 7 0 13 9 13 20 0 15 -7 20 -25 20
-14 0 -25 -4 -25 -8z"/>
<path d="M2505 350 c3 -5 8 -10 11 -10 2 0 4 5 4 10 0 6 -5 10 -11 10 -5 0 -7
-4 -4 -10z"/>
<path d="M3590 345 c-10 -12 -10 -15 4 -15 9 0 16 7 16 15 0 8 -2 15 -4 15 -2
0 -9 -7 -16 -15z"/>
<path d="M4750 350 c0 -5 5 -10 10 -10 6 0 10 5 10 10 0 6 -4 10 -10 10 -5 0
-10 -4 -10 -10z"/>
<path d="M4757 300 c-9 -11 -14 -20 -11 -20 4 0 3 -6 -2 -13 -5 -7 -2 -5 8 5
9 10 21 18 27 18 6 0 11 7 11 15 0 21 -12 19 -33 -5z"/>
<path d="M2967 284 c-8 -8 1 -24 14 -24 5 0 9 7 9 15 0 15 -12 20 -23 9z"/>
<path d="M5045 280 c-3 -6 1 -13 10 -16 19 -8 30 0 20 15 -8 14 -22 14 -30 1z"/>
<path d="M4816 273 c-11 -11 -6 -23 9 -23 8 0 15 4 15 9 0 13 -16 22 -24 14z"/>
<path d="M5111 266 c-10 -12 -6 -26 10 -26 11 0 19 29 10 35 -5 2 -14 -1 -20
-9z"/>
<path d="M4520 260 c0 -5 4 -10 9 -10 6 0 13 5 16 10 3 6 -1 10 -9 10 -9 0
-16 -4 -16 -10z"/>
<path d="M4168 243 c7 -3 16 -2 19 1 4 3 -2 6 -13 5 -11 0 -14 -3 -6 -6z"/>
<path d="M4750 235 c0 -10 7 -15 18 -13 21 4 19 22 -2 26 -10 2 -16 -3 -16
-13z"/>
<path d="M5410 190 c0 -5 5 -10 10 -10 6 0 10 5 10 10 0 6 -4 10 -10 10 -5 0
-10 -4 -10 -10z"/>
<path d="M2940 180 c0 -5 5 -10 10 -10 6 0 10 5 10 10 0 6 -4 10 -10 10 -5 0
-10 -4 -10 -10z"/>
<path d="M3860 160 c0 -5 5 -10 10 -10 6 0 10 5 10 10 0 6 -4 10 -10 10 -5 0
-10 -4 -10 -10z"/>
<path d="M4410 149 c0 -5 5 -7 10 -4 6 3 10 8 10 11 0 2 -4 4 -10 4 -5 0 -10
-5 -10 -11z"/>
<path d="M2635 140 c-3 -5 -1 -10 4 -10 6 0 11 5 11 10 0 6 -2 10 -4 10 -3 0
-8 -4 -11 -10z"/>
<path d="M2600 94 c0 -8 5 -12 10 -9 6 3 10 10 10 16 0 5 -4 9 -10 9 -5 0 -10
-7 -10 -16z"/>
<path d="M4720 86 c0 -9 5 -16 10 -16 6 0 10 4 10 9 0 6 -4 13 -10 16 -5 3
-10 -1 -10 -9z"/>
<path d="M2845 60 c-3 -5 -1 -10 4 -10 6 0 11 5 11 10 0 6 -2 10 -4 10 -3 0
-8 -4 -11 -10z"/>
<path d="M5450 60 c0 -5 7 -10 15 -10 8 0 15 5 15 10 0 6 -7 10 -15 10 -8 0
-15 -4 -15 -10z"/>
<path d="M2800 30 c0 -5 5 -10 10 -10 6 0 10 5 10 10 0 6 -4 10 -10 10 -5 0
-10 -4 -10 -10z"/>
<path d="M4465 10 c-4 -6 10 -10 34 -10 22 0 43 5 46 10 4 6 -10 10 -34 10
-22 0 -43 -4 -46 -10z"/>
</g>
</svg>
